<svg width="161" height="41" viewBox="0 0 161 41" fill="none" xmlns="http://www.w3.org/2000/svg">
<circle cx="20.5" cy="20.5" r="20.5" fill="#191A23"/>
<path d="M11.2501 24.701C10.5326 25.1152 10.2868 26.0326 10.701 26.75C11.1152 27.4674 12.0326 27.7133 12.7501 27.299L12.0001 26L11.2501 24.701ZM30.7694 16.3882C30.9839 15.588 30.509 14.7655 29.7088 14.5511L16.6688 11.0571C15.8686 10.8426 15.0461 11.3175 14.8317 12.1177C14.6173 12.9179 15.0921 13.7404 15.8923 13.9548L27.4834 17.0607L24.3776 28.6518C24.1632 29.452 24.6381 30.2745 25.4383 30.4889C26.2385 30.7033 27.061 30.2284 27.2754 29.4282L30.7694 16.3882ZM12.0001 26L12.7501 27.299L30.0706 17.299L29.3206 16L28.5706 14.701L11.2501 24.701L12.0001 26Z" fill="#BDE958"/>
<path d="M57.48 27.5V13.5H59.16V26.16H65.68V27.5H57.48ZM71.9181 27.74C70.9715 27.74 70.1315 27.5267 69.3981 27.1C68.6648 26.66 68.0848 26.0533 67.6581 25.28C67.2448 24.5067 67.0381 23.5933 67.0381 22.54C67.0381 21.5 67.2448 20.5933 67.6581 19.82C68.0715 19.0333 68.6448 18.4267 69.3781 18C70.1248 17.56 70.9848 17.34 71.9581 17.34C72.9181 17.34 73.7448 17.56 74.4381 18C75.1448 18.4267 75.6848 18.9933 76.0581 19.7C76.4315 20.4067 76.6181 21.1667 76.6181 21.98C76.6181 22.1267 76.6115 22.2733 76.5981 22.42C76.5981 22.5667 76.5981 22.7333 76.5981 22.92H68.6981C68.7381 23.68 68.9115 24.3133 69.2181 24.82C69.5381 25.3133 69.9315 25.6867 70.3981 25.94C70.8781 26.1933 71.3848 26.32 71.9181 26.32C72.6115 26.32 73.1915 26.16 73.6581 25.84C74.1248 25.52 74.4648 25.0867 74.6781 24.54H76.3381C76.0715 25.46 75.5581 26.2267 74.7981 26.84C74.0515 27.44 73.0915 27.74 71.9181 27.74ZM71.9181 18.76C71.1181 18.76 70.4048 19.0067 69.7781 19.5C69.1648 19.98 68.8115 20.6867 68.7181 21.62H74.9581C74.9181 20.7267 74.6115 20.0267 74.0381 19.52C73.4648 19.0133 72.7581 18.76 71.9181 18.76ZM82.1448 27.74C81.3182 27.74 80.6315 27.6 80.0848 27.32C79.5382 27.04 79.1315 26.6667 78.8648 26.2C78.5982 25.7333 78.4648 25.2267 78.4648 24.68C78.4648 23.6667 78.8515 22.8867 79.6248 22.34C80.3982 21.7933 81.4515 21.52 82.7848 21.52H85.4648V21.4C85.4648 20.5333 85.2382 19.88 84.7848 19.44C84.3315 18.9867 83.7248 18.76 82.9648 18.76C82.3115 18.76 81.7448 18.9267 81.2648 19.26C80.7982 19.58 80.5048 20.0533 80.3848 20.68H78.6648C78.7315 19.96 78.9715 19.3533 79.3848 18.86C79.8115 18.3667 80.3382 17.9933 80.9648 17.74C81.5915 17.4733 82.2582 17.34 82.9648 17.34C84.3515 17.34 85.3915 17.7133 86.0848 18.46C86.7915 19.1933 87.1448 20.1733 87.1448 21.4V27.5H85.6448L85.5448 25.72C85.2648 26.28 84.8515 26.76 84.3048 27.16C83.7715 27.5467 83.0515 27.74 82.1448 27.74ZM82.4048 26.32C83.0448 26.32 83.5915 26.1533 84.0448 25.82C84.5115 25.4867 84.8648 25.0533 85.1048 24.52C85.3448 23.9867 85.4648 23.4267 85.4648 22.84V22.82H82.9248C81.9382 22.82 81.2382 22.9933 80.8248 23.34C80.4248 23.6733 80.2248 24.0933 80.2248 24.6C80.2248 25.12 80.4115 25.54 80.7848 25.86C81.1715 26.1667 81.7115 26.32 82.4048 26.32ZM89.6652 27.5V17.58H91.1852L91.3252 19.48C91.6318 18.8267 92.0985 18.3067 92.7252 17.92C93.3518 17.5333 94.1252 17.34 95.0452 17.34V19.1H94.5852C93.9985 19.1 93.4585 19.2067 92.9652 19.42C92.4718 19.62 92.0785 19.9667 91.7852 20.46C91.4918 20.9533 91.3452 21.6333 91.3452 22.5V27.5H89.6652ZM96.9308 27.5V17.58H98.4508L98.5508 19.36C98.8708 18.7333 99.3308 18.24 99.9308 17.88C100.531 17.52 101.211 17.34 101.971 17.34C103.144 17.34 104.077 17.7 104.771 18.42C105.477 19.1267 105.831 20.22 105.831 21.7V27.5H104.151V21.88C104.151 19.8133 103.297 18.78 101.591 18.78C100.737 18.78 100.024 19.0933 99.4508 19.72C98.8908 20.3333 98.6108 21.2133 98.6108 22.36V27.5H96.9308ZM113.669 27.5V17.58H115.189L115.309 19.02C115.629 18.4867 116.056 18.0733 116.589 17.78C117.122 17.4867 117.722 17.34 118.389 17.34C119.176 17.34 119.849 17.5 120.409 17.82C120.982 18.14 121.422 18.6267 121.729 19.28C122.076 18.68 122.549 18.2067 123.149 17.86C123.762 17.5133 124.422 17.34 125.129 17.34C126.316 17.34 127.262 17.7 127.969 18.42C128.676 19.1267 129.029 20.22 129.029 21.7V27.5H127.369V21.88C127.369 20.8533 127.162 20.08 126.749 19.56C126.336 19.04 125.742 18.78 124.969 18.78C124.169 18.78 123.502 19.0933 122.969 19.72C122.449 20.3333 122.189 21.2133 122.189 22.36V27.5H120.509V21.88C120.509 20.8533 120.302 20.08 119.889 19.56C119.476 19.04 118.882 18.78 118.109 18.78C117.322 18.78 116.662 19.0933 116.129 19.72C115.609 20.3333 115.349 21.2133 115.349 22.36V27.5H113.669ZM136.08 27.74C135.146 27.74 134.306 27.5267 133.56 27.1C132.813 26.6733 132.22 26.0733 131.78 25.3C131.353 24.5133 131.14 23.5933 131.14 22.54C131.14 21.4867 131.36 20.5733 131.8 19.8C132.24 19.0133 132.833 18.4067 133.58 17.98C134.34 17.5533 135.186 17.34 136.12 17.34C137.053 17.34 137.893 17.5533 138.64 17.98C139.386 18.4067 139.973 19.0133 140.4 19.8C140.84 20.5733 141.06 21.4867 141.06 22.54C141.06 23.5933 140.84 24.5133 140.4 25.3C139.96 26.0733 139.36 26.6733 138.6 27.1C137.853 27.5267 137.013 27.74 136.08 27.74ZM136.08 26.3C136.653 26.3 137.186 26.16 137.68 25.88C138.173 25.6 138.573 25.18 138.88 24.62C139.186 24.06 139.34 23.3667 139.34 22.54C139.34 21.7133 139.186 21.02 138.88 20.46C138.586 19.9 138.193 19.48 137.7 19.2C137.206 18.92 136.68 18.78 136.12 18.78C135.546 18.78 135.013 18.92 134.52 19.2C134.026 19.48 133.626 19.9 133.32 20.46C133.013 21.02 132.86 21.7133 132.86 22.54C132.86 23.3667 133.013 24.06 133.32 24.62C133.626 25.18 134.02 25.6 134.5 25.88C134.993 26.16 135.52 26.3 136.08 26.3ZM143.396 27.5V17.58H144.916L145.056 19.48C145.362 18.8267 145.829 18.3067 146.456 17.92C147.082 17.5333 147.856 17.34 148.776 17.34V19.1H148.316C147.729 19.1 147.189 19.2067 146.696 19.42C146.202 19.62 145.809 19.9667 145.516 20.46C145.222 20.9533 145.076 21.6333 145.076 22.5V27.5H143.396ZM154.75 27.74C153.803 27.74 152.963 27.5267 152.23 27.1C151.497 26.66 150.917 26.0533 150.49 25.28C150.077 24.5067 149.87 23.5933 149.87 22.54C149.87 21.5 150.077 20.5933 150.49 19.82C150.903 19.0333 151.477 18.4267 152.21 18C152.957 17.56 153.817 17.34 154.79 17.34C155.75 17.34 156.577 17.56 157.27 18C157.977 18.4267 158.517 18.9933 158.89 19.7C159.263 20.4067 159.45 21.1667 159.45 21.98C159.45 22.1267 159.443 22.2733 159.43 22.42C159.43 22.5667 159.43 22.7333 159.43 22.92H151.53C151.57 23.68 151.743 24.3133 152.05 24.82C152.37 25.3133 152.763 25.6867 153.23 25.94C153.71 26.1933 154.217 26.32 154.75 26.32C155.443 26.32 156.023 26.16 156.49 25.84C156.957 25.52 157.297 25.0867 157.51 24.54H159.17C158.903 25.46 158.39 26.2267 157.63 26.84C156.883 27.44 155.923 27.74 154.75 27.74ZM154.75 18.76C153.95 18.76 153.237 19.0067 152.61 19.5C151.997 19.98 151.643 20.6867 151.55 21.62H157.79C157.75 20.7267 157.443 20.0267 156.87 19.52C156.297 19.0133 155.59 18.76 154.75 18.76Z" fill="black"/>
</svg>
