<svg width="681" height="480" viewBox="0 0 681 480" fill="none" xmlns="http://www.w3.org/2000/svg">
<circle cx="340.535" cy="152.385" r="68.3483" fill="#00C389"/>
<circle cx="340.534" cy="152.386" r="41.6199" fill="#313131"/>
<circle cx="368.41" cy="122.984" r="18.328" fill="#D9D9D9"/>
<path d="M348.74 42.7998V0L570.287 127.911L534.762 150.198L348.74 42.7998Z" fill="#914E00"/>
<path d="M348.737 265.647V308.446L512.139 214.106L492.994 182.361L348.737 265.647Z" fill="#F6921E"/>
<path d="M333.201 265.648V308.447L102.386 175.186V132.387L333.201 265.648Z" fill="#914E00"/>
<path d="M333.199 42.7988V0L166.593 96.1895L183.621 129.157L333.199 42.7988Z" fill="#F6921E"/>
<path d="M617.118 132.575C617.853 133.318 575.64 161.401 561.996 171.686C548.346 181.961 546.249 183.613 543.729 185.838C541.212 188.054 544.198 194.354 548.151 192.73C552.108 191.108 617.757 148.372 621.489 145.977C625.215 143.587 630.385 140.582 605.357 160.594C580.336 180.6 555.258 202.164 542.09 207.863C528.929 213.581 519.947 207.778 512.425 208.346C510.785 208.471 509.518 208.456 508.417 208.43L495.948 188.996C496.384 187.985 496.898 186.827 497.695 185.387C501.344 178.785 499.818 168.209 510.497 158.621C521.173 149.035 551.226 135.227 579.84 120.822C608.463 106.413 603.569 109.85 599.844 112.24C596.112 114.634 529.909 156.509 526.783 159.425C523.659 162.341 528.143 167.684 531.205 166.317C534.282 164.96 536.654 163.737 551.686 155.617C566.718 147.496 609.937 120.979 610.298 121.962C610.665 122.943 538.499 170.92 535.119 173.238C532.08 175.324 534.022 177.391 534.421 178.012L534.478 178.101C534.869 178.71 535.906 181.288 539.068 179.392C542.585 177.289 616.372 131.835 617.118 132.575Z" fill="#F6921E"/>
<path d="M70.0499 172.054C70.7484 173.397 73.3749 177.595 79.5277 179.448C86.9103 181.683 107.616 188.11 138.889 175.539C170.171 162.969 176.245 140.655 176.613 126.222C176.717 122.158 178.4 118.707 181.088 115.67L174.075 103.588C170.104 104.417 166.272 104.167 162.692 102.24C149.976 95.4038 127.587 89.6147 101.158 110.544C74.7341 131.467 70.0465 152.634 68.3247 160.15C66.8892 166.424 69.2243 170.774 70.0499 172.054Z" fill="#F6921E"/>
<path d="M19.837 367.553V352.794H56.7951V367.553H19.837ZM19.837 400.143V386.091H55.6144V400.143H19.837ZM8.97387 352.794H25.2685V435.448H8.97387V352.794ZM63.627 408.29C63.627 402.622 64.9258 397.663 67.5235 393.412C70.2 389.161 73.7816 385.855 78.2686 383.494C82.8342 381.132 87.9903 379.951 93.7367 379.951C99.4831 379.951 104.6 381.132 109.087 383.494C113.652 385.855 117.234 389.161 119.832 393.412C122.508 397.663 123.846 402.622 123.846 408.29C123.846 413.879 122.508 418.838 119.832 423.168C117.234 427.419 113.652 430.725 109.087 433.086C104.6 435.448 99.4831 436.629 93.7367 436.629C87.9903 436.629 82.8342 435.448 78.2686 433.086C73.7816 430.725 70.2 427.419 67.5235 423.168C64.9258 418.838 63.627 413.879 63.627 408.29ZM79.2132 408.29C79.2132 411.36 79.8429 414.076 81.1024 416.437C82.4406 418.72 84.2118 420.531 86.4159 421.869C88.62 423.128 91.0603 423.758 93.7367 423.758C96.4131 423.758 98.8534 423.128 101.057 421.869C103.262 420.531 104.993 418.72 106.253 416.437C107.591 414.076 108.26 411.36 108.26 408.29C108.26 405.22 107.591 402.504 106.253 400.143C104.993 397.781 103.262 395.971 101.057 394.711C98.8534 393.452 96.4131 392.822 93.7367 392.822C91.0603 392.822 88.62 393.452 86.4159 394.711C84.2118 395.971 82.4406 397.781 81.1024 400.143C79.8429 402.504 79.2132 405.22 79.2132 408.29ZM131.66 408.29C131.66 402.622 132.959 397.663 135.556 393.412C138.233 389.161 141.814 385.855 146.301 383.494C150.867 381.132 156.023 379.951 161.769 379.951C167.516 379.951 172.633 381.132 177.119 383.494C181.685 385.855 185.267 389.161 187.864 393.412C190.541 397.663 191.879 402.622 191.879 408.29C191.879 413.879 190.541 418.838 187.864 423.168C185.267 427.419 181.685 430.725 177.119 433.086C172.633 435.448 167.516 436.629 161.769 436.629C156.023 436.629 150.867 435.448 146.301 433.086C141.814 430.725 138.233 427.419 135.556 423.168C132.959 418.838 131.66 413.879 131.66 408.29ZM147.246 408.29C147.246 411.36 147.876 414.076 149.135 416.437C150.473 418.72 152.245 420.531 154.449 421.869C156.653 423.128 159.093 423.758 161.769 423.758C164.446 423.758 166.886 423.128 169.09 421.869C171.294 420.531 173.026 418.72 174.286 416.437C175.624 414.076 176.293 411.36 176.293 408.29C176.293 405.22 175.624 402.504 174.286 400.143C173.026 397.781 171.294 395.971 169.09 394.711C166.886 393.452 164.446 392.822 161.769 392.822C159.093 392.822 156.653 393.452 154.449 394.711C152.245 395.971 150.473 397.781 149.135 400.143C147.876 402.504 147.246 405.22 147.246 408.29ZM244.326 343.348H259.676V435.448H244.326V343.348ZM199.693 408.29C199.693 402.229 200.913 397.112 203.353 392.94C205.793 388.689 209.021 385.462 213.035 383.258C217.05 381.054 221.301 379.951 225.788 379.951C230.353 379.951 234.368 381.093 237.831 383.376C241.374 385.659 244.129 388.925 246.097 393.176C248.144 397.348 249.167 402.386 249.167 408.29C249.167 414.115 248.144 419.153 246.097 423.404C244.129 427.655 241.374 430.921 237.831 433.204C234.368 435.487 230.353 436.629 225.788 436.629C221.301 436.629 217.05 435.526 213.035 433.322C209.021 431.118 205.793 427.891 203.353 423.64C200.913 419.389 199.693 414.273 199.693 408.29ZM215.515 408.29C215.515 411.517 216.184 414.312 217.522 416.673C218.86 419.035 220.671 420.846 222.954 422.105C225.237 423.365 227.677 423.994 230.274 423.994C232.557 423.994 234.761 423.404 236.887 422.223C239.091 420.964 240.862 419.153 242.2 416.792C243.617 414.43 244.326 411.596 244.326 408.29C244.326 404.984 243.617 402.15 242.2 399.788C240.862 397.427 239.091 395.656 236.887 394.475C234.761 393.215 232.557 392.586 230.274 392.586C227.677 392.586 225.237 393.215 222.954 394.475C220.671 395.734 218.86 397.545 217.522 399.907C216.184 402.268 215.515 405.063 215.515 408.29ZM270.723 408.29C270.723 402.622 272.022 397.663 274.62 393.412C277.296 389.161 280.878 385.855 285.365 383.494C289.931 381.132 295.087 379.951 300.833 379.951C306.579 379.951 311.696 381.132 316.183 383.494C320.749 385.855 324.33 389.161 326.928 393.412C329.604 397.663 330.943 402.622 330.943 408.29C330.943 413.879 329.604 418.838 326.928 423.168C324.33 427.419 320.749 430.725 316.183 433.086C311.696 435.448 306.579 436.629 300.833 436.629C295.087 436.629 289.931 435.448 285.365 433.086C280.878 430.725 277.296 427.419 274.62 423.168C272.022 418.838 270.723 413.879 270.723 408.29ZM286.309 408.29C286.309 411.36 286.939 414.076 288.199 416.437C289.537 418.72 291.308 420.531 293.512 421.869C295.716 423.128 298.157 423.758 300.833 423.758C303.509 423.758 305.95 423.128 308.154 421.869C310.358 420.531 312.09 418.72 313.349 416.437C314.687 414.076 315.356 411.36 315.356 408.29C315.356 405.22 314.687 402.504 313.349 400.143C312.09 397.781 310.358 395.971 308.154 394.711C305.95 393.452 303.509 392.822 300.833 392.822C298.157 392.822 295.716 393.452 293.512 394.711C291.308 395.971 289.537 397.781 288.199 400.143C286.939 402.504 286.309 405.22 286.309 408.29ZM652.172 428.481C652.172 425.805 653.077 423.561 654.887 421.751C656.777 419.862 659.099 418.917 661.854 418.917C664.688 418.917 667.01 419.862 668.821 421.751C670.631 423.561 671.536 425.805 671.536 428.481C671.536 431 670.631 433.204 668.821 435.094C667.01 436.983 664.688 437.927 661.854 437.927C659.099 437.927 656.777 436.983 654.887 435.094C653.077 433.204 652.172 431 652.172 428.481Z" fill="#00C389"/>
<path d="M345.132 416.673C347.415 418.799 349.54 420.531 351.508 421.869C353.476 423.128 355.326 424.073 357.058 424.703C358.869 425.332 360.561 425.647 362.135 425.647C364.182 425.647 365.756 425.214 366.858 424.348C367.96 423.404 368.511 422.144 368.511 420.57C368.511 419.153 368.039 417.972 367.095 417.028C366.229 416.004 364.93 415.099 363.198 414.312C361.466 413.525 359.262 412.698 356.586 411.832C354.067 410.888 351.626 409.786 349.265 408.526C346.903 407.188 344.935 405.456 343.361 403.331C341.865 401.127 341.118 398.332 341.118 394.947C341.118 391.72 341.983 389.004 343.715 386.8C345.447 384.517 347.769 382.825 350.682 381.723C353.673 380.542 356.979 379.951 360.6 379.951C363.67 379.951 366.544 380.345 369.22 381.132C371.896 381.919 374.376 382.982 376.659 384.32C378.942 385.58 380.949 387.075 382.681 388.807L375.95 398.253C373.982 396.128 371.621 394.396 368.866 393.058C366.189 391.72 363.552 391.051 360.955 391.051C359.223 391.051 357.845 391.405 356.822 392.113C355.877 392.743 355.405 393.727 355.405 395.065C355.405 396.246 355.877 397.309 356.822 398.253C357.845 399.119 359.262 399.907 361.073 400.615C362.962 401.323 365.087 402.189 367.449 403.213C370.361 404.315 373.038 405.574 375.478 406.991C377.997 408.329 380.004 410.022 381.5 412.068C382.996 414.115 383.743 416.792 383.743 420.098C383.743 425.529 381.972 429.78 378.43 432.85C374.888 435.841 370.007 437.337 363.788 437.337C359.931 437.337 356.389 436.825 353.161 435.802C350.013 434.779 347.14 433.44 344.542 431.787C342.023 430.056 339.74 428.206 337.693 426.238L345.132 416.673ZM405.877 408.29C405.877 411.439 406.586 414.194 408.003 416.555C409.42 418.917 411.309 420.767 413.67 422.105C416.111 423.443 418.787 424.112 421.7 424.112C424.061 424.112 426.344 423.758 428.548 423.05C430.752 422.262 432.72 421.239 434.452 419.98C436.263 418.641 437.64 417.106 438.585 415.375V431.079C436.696 432.811 434.216 434.188 431.146 435.212C428.155 436.156 424.652 436.629 420.637 436.629C414.891 436.629 409.695 435.448 405.051 433.086C400.485 430.725 396.864 427.419 394.188 423.168C391.59 418.838 390.291 413.879 390.291 408.29C390.291 402.622 391.59 397.663 394.188 393.412C396.864 389.161 400.485 385.855 405.051 383.494C409.695 381.132 414.891 379.951 420.637 379.951C424.652 379.951 428.155 380.463 431.146 381.486C434.216 382.431 436.696 383.73 438.585 385.383V401.087C437.64 399.355 436.223 397.86 434.334 396.6C432.523 395.262 430.516 394.239 428.312 393.53C426.108 392.822 423.904 392.468 421.7 392.468C418.787 392.468 416.111 393.176 413.67 394.593C411.309 395.931 409.42 397.781 408.003 400.143C406.586 402.504 405.877 405.22 405.877 408.29ZM448.416 408.29C448.416 402.622 449.714 397.663 452.312 393.412C454.989 389.161 458.57 385.855 463.057 383.494C467.623 381.132 472.779 379.951 478.525 379.951C484.272 379.951 489.388 381.132 493.875 383.494C498.441 385.855 502.023 389.161 504.62 393.412C507.297 397.663 508.635 402.622 508.635 408.29C508.635 413.879 507.297 418.838 504.62 423.168C502.023 427.419 498.441 430.725 493.875 433.086C489.388 435.448 484.272 436.629 478.525 436.629C472.779 436.629 467.623 435.448 463.057 433.086C458.57 430.725 454.989 427.419 452.312 423.168C449.714 418.838 448.416 413.879 448.416 408.29ZM464.002 408.29C464.002 411.36 464.632 414.076 465.891 416.437C467.229 418.72 469 420.531 471.205 421.869C473.409 423.128 475.849 423.758 478.525 423.758C481.202 423.758 483.642 423.128 485.846 421.869C488.05 420.531 489.782 418.72 491.041 416.437C492.38 414.076 493.049 411.36 493.049 408.29C493.049 405.22 492.38 402.504 491.041 400.143C489.782 397.781 488.05 395.971 485.846 394.711C483.642 393.452 481.202 392.822 478.525 392.822C475.849 392.822 473.409 393.452 471.205 394.711C469 395.971 467.229 397.781 465.891 400.143C464.632 402.504 464.002 405.22 464.002 408.29ZM535.105 461.425H519.755V381.132H535.105V461.425ZM579.738 408.29C579.738 414.43 578.518 419.665 576.077 423.994C573.637 428.324 570.41 431.591 566.395 433.795C562.459 435.999 558.208 437.101 553.643 437.101C548.998 437.101 544.944 435.92 541.481 433.559C538.096 431.197 535.459 427.851 533.57 423.522C531.759 419.192 530.854 414.115 530.854 408.29C530.854 402.386 531.759 397.309 533.57 393.058C535.459 388.729 538.096 385.383 541.481 383.021C544.944 380.66 548.998 379.479 553.643 379.479C558.208 379.479 562.459 380.581 566.395 382.785C570.41 384.989 573.637 388.256 576.077 392.586C578.518 396.837 579.738 402.071 579.738 408.29ZM563.915 408.29C563.915 405.063 563.246 402.307 561.908 400.025C560.57 397.742 558.759 396.01 556.477 394.829C554.272 393.648 551.832 393.058 549.156 393.058C546.873 393.058 544.629 393.648 542.425 394.829C540.3 395.931 538.529 397.624 537.112 399.907C535.774 402.189 535.105 404.984 535.105 408.29C535.105 411.596 535.774 414.391 537.112 416.673C538.529 418.956 540.3 420.688 542.425 421.869C544.629 422.971 546.873 423.522 549.156 423.522C551.832 423.522 554.272 422.932 556.477 421.751C558.759 420.57 560.57 418.838 561.908 416.555C563.246 414.273 563.915 411.517 563.915 408.29ZM616.762 436.629C610.858 436.629 605.702 435.448 601.294 433.086C596.886 430.725 593.462 427.458 591.022 423.286C588.66 419.035 587.479 414.036 587.479 408.29C587.479 402.465 588.66 397.466 591.022 393.294C593.462 389.043 596.886 385.777 601.294 383.494C605.702 381.132 610.898 379.951 616.88 379.951C622.863 379.951 627.94 381.054 632.112 383.258C636.363 385.383 639.591 388.532 641.795 392.704C643.999 396.797 645.101 401.756 645.101 407.582C645.101 408.29 645.061 409.038 644.983 409.825C644.983 410.612 644.943 411.242 644.865 411.714H596.217V402.268H631.522L627.389 407.7C627.704 407.227 627.98 406.598 628.216 405.81C628.531 404.944 628.688 404.236 628.688 403.685C628.688 401.009 628.176 398.726 627.153 396.837C626.209 394.947 624.831 393.452 623.02 392.35C621.21 391.248 619.085 390.697 616.644 390.697C613.653 390.697 611.134 391.366 609.087 392.704C607.119 393.963 605.584 395.892 604.482 398.49C603.459 401.009 602.908 404.157 602.829 407.936C602.829 411.557 603.341 414.627 604.364 417.146C605.466 419.665 607.08 421.593 609.205 422.932C611.331 424.27 613.889 424.939 616.88 424.939C620.265 424.939 623.138 424.309 625.5 423.05C627.94 421.711 629.948 419.743 631.522 417.146L644.865 421.278C642.031 426.395 638.252 430.252 633.529 432.85C628.885 435.369 623.296 436.629 616.762 436.629Z" fill="#F5F5F5"/>
</svg>
