<svg width="500" height="500" viewBox="0 0 500 500" fill="none" xmlns="http://www.w3.org/2000/svg">
<path d="M89.031 261.412C0.133011 312.737 0.135017 395.952 89.036 447.279C177.937 498.604 322.071 498.604 410.969 447.279C499.867 395.954 499.865 312.738 410.964 261.412C322.063 210.086 177.929 210.086 89.031 261.412Z" fill="#FAFAFA"/>
<path d="M386.306 341.738L149.618 205.071C146.031 203 140.173 203.005 136.589 205.072L14.431 275.437C9.56802 278.24 9.56302 282.838 14.42 285.642L249.558 421.413C252.718 423.238 257.889 423.237 261.053 421.406L386.306 349.26C389.89 347.194 389.893 343.809 386.306 341.738Z" fill="#E0E0E0"/>
<path d="M382.205 370.434C370.588 377.141 364.78 385.931 364.781 394.722C364.781 403.512 370.59 412.303 382.208 419.01C405.442 432.424 443.112 432.424 466.346 419.01C477.963 412.303 483.771 403.513 483.77 394.722C483.77 385.931 477.961 377.141 466.343 370.434C443.108 357.02 405.438 357.02 382.205 370.434Z" fill="#E0E0E0"/>
<path d="M67.726 371.173C56.145 377.859 50.354 386.623 50.354 395.387C50.354 404.151 56.146 412.915 67.728 419.602C90.892 432.975 128.448 432.975 151.611 419.602C163.192 412.915 168.983 404.152 168.983 395.388C168.983 386.624 163.191 377.86 151.609 371.173C128.445 357.799 90.889 357.799 67.726 371.173Z" fill="#E0E0E0"/>
<path d="M167.901 146.133L387.789 318.861C393.308 323.196 392.676 327.793 392.17 331.916C391.663 336.039 389.367 341.681 384.651 344.403L263.932 414.101C259.217 416.824 252.156 416.487 248.161 413.349L28.2709 240.621C24.2759 237.483 23.8899 232.525 24.3959 228.401C24.9029 224.278 26.6939 217.8 31.4089 215.078L152.129 145.381C156.845 142.658 162.336 141.764 167.901 146.133Z" fill="#37474F"/>
<path d="M161.444 151.527L37.3079 223.197L258.147 396.617L255.775 415.922C252.922 415.785 250.158 414.917 248.161 413.348L28.2709 240.621C24.2759 237.483 23.8899 232.525 24.3959 228.401C24.9029 224.278 26.6939 217.8 31.4089 215.078L152.129 145.381C155.075 143.68 158.628 142.503 162.442 143.407L162.369 144.004L161.444 151.527Z" fill="#263238"/>
<path d="M385.63 319.851L166.114 147.416C162.947 144.928 157.307 144.664 153.572 146.818L35.7298 214.859C30.6628 217.779 30.0248 222.937 34.3128 226.305L252.46 397.664C255.25 399.856 260.227 400.093 263.525 398.184L384.593 328.288C388.329 326.135 388.798 322.338 385.63 319.851Z" fill="#455A64"/>
<path d="M94.6598 278.032C96.2338 279.268 97.2938 282.026 97.0278 284.192C96.8988 285.238 96.4838 285.947 95.9128 286.263C95.5088 286.486 93.9748 287.403 93.5548 287.637C92.9448 287.976 92.1588 287.867 91.3498 287.232L73.8708 273.501C72.2968 272.265 71.2368 269.507 71.5028 267.341C71.6248 266.343 72.0098 265.652 72.5418 265.316C72.9608 265.052 74.5528 264.134 74.9718 263.9C75.5818 263.558 76.3698 263.666 77.1808 264.303L94.6598 278.032Z" fill="#455A64"/>
<path d="M92.3138 279.386L74.8348 265.657C73.2608 264.421 71.7688 265.174 71.5028 267.34C71.2368 269.506 72.2968 272.264 73.8708 273.5L91.3498 287.23C92.9238 288.466 94.4158 287.713 94.6818 285.547C94.9478 283.381 93.8878 280.623 92.3138 279.386Z" fill="#37474F"/>
<path d="M64.0668 254.002C65.6408 255.238 66.7008 257.996 66.4348 260.162C66.3068 261.208 65.8918 261.917 65.3198 262.233C64.9158 262.456 63.3828 263.374 62.9618 263.607C62.3518 263.946 61.5658 263.837 60.7568 263.202L43.2778 249.473C41.7038 248.237 40.6438 245.479 40.9098 243.313C41.0328 242.315 41.4168 241.624 41.9488 241.288C42.3678 241.024 43.9608 240.105 44.3788 239.872C44.9888 239.531 45.7768 239.638 46.5878 240.275L64.0668 254.002Z" fill="#455A64"/>
<path d="M61.7218 255.357L44.2428 241.628C42.6688 240.392 41.1768 241.145 40.9108 243.311C40.6448 245.477 41.7048 248.235 43.2788 249.471L60.7578 263.2C62.3318 264.436 63.8228 263.683 64.0898 261.517C64.3558 259.352 63.2958 256.594 61.7218 255.357Z" fill="#37474F"/>
<path d="M170.107 156.881L375.092 317.902C378.119 320.28 377.681 323.9 374.113 325.951L264.579 389.192C261.019 391.263 255.665 391.008 252.63 388.625L46.1779 226.453C43.7239 224.525 43.5319 221.786 45.4849 219.719C45.6429 219.56 45.7869 219.403 45.9519 219.25C46.3109 218.952 46.7199 218.666 47.1649 218.409L77.9739 200.62C77.9739 200.62 78.8709 200.098 79.9839 199.461C81.0899 198.819 82.7489 198.896 83.6929 199.637C84.6299 200.373 86.3589 200.423 87.5409 199.733L123.448 179.004C124.623 178.323 124.835 177.167 123.899 176.432C123.02 175.742 123.08 174.71 123.994 174.053C124.056 174.007 124.126 173.968 124.195 173.928L154.337 156.532L154.976 156.158C159.487 153.556 166.288 153.882 170.107 156.881Z" fill="black"/>
<path d="M83.0819 204.596C82.1379 203.855 80.4789 203.778 79.3729 204.42C78.2599 205.056 77.3629 205.578 77.3629 205.578L46.5539 223.367C46.1089 223.624 45.6999 223.91 45.3409 224.208C45.1759 224.362 45.0329 224.518 44.8749 224.677C44.8239 224.731 44.7909 224.789 44.7429 224.844C45.0769 225.416 45.5509 225.961 46.1769 226.452L252.628 388.624C255.663 391.008 261.017 391.262 264.577 389.191L374.111 325.95C374.853 325.523 375.451 325.027 375.92 324.489C375.587 323.909 375.114 323.356 374.481 322.858L169.497 161.839C165.678 158.84 158.878 158.514 154.364 161.117L153.724 161.491L124.375 178.43C124.375 178.43 123.919 182.189 123.863 182.634C123.802 183.122 123.451 183.607 122.836 183.964L86.9299 204.692C85.7479 205.382 84.0189 205.332 83.0819 204.596Z" fill="#EBEBEB"/>
<path d="M75.4038 221.48C75.3588 221.475 75.3128 221.452 75.2668 221.409L74.8288 221.007L73.4638 221.796C73.3888 221.839 73.3208 221.832 73.2578 221.775L73.1008 221.631C73.0658 221.598 73.0418 221.57 73.0308 221.548C73.0208 221.525 73.0128 221.494 73.0078 221.456L72.8928 219.177C72.8908 219.136 72.8948 219.105 72.9048 219.084C72.9138 219.063 72.9398 219.04 72.9838 219.015L73.1738 218.906C73.2308 218.872 73.2828 218.859 73.3328 218.865C73.3808 218.871 73.4308 218.897 73.4788 218.942L75.0068 220.347L75.3078 220.173C75.3658 220.14 75.4168 220.126 75.4608 220.133C75.5068 220.14 75.5528 220.166 75.6018 220.21L75.7058 220.306C75.7518 220.348 75.7728 220.385 75.7698 220.417C75.7678 220.449 75.7378 220.482 75.6798 220.515L75.3788 220.689L75.8168 221.091C75.8628 221.133 75.8848 221.171 75.8798 221.204C75.8748 221.237 75.8438 221.271 75.7838 221.306L75.5538 221.438C75.4988 221.471 75.4488 221.485 75.4038 221.48ZM74.5468 220.613L73.4568 219.611L73.5558 221.185L74.5468 220.613Z" fill="#455A64"/>
<path d="M76.7607 220.3C76.2577 220.238 75.7877 220.006 75.3497 219.604C74.9147 219.204 74.7127 218.817 74.7447 218.445C74.7767 218.072 75.0357 217.746 75.5207 217.466C75.7157 217.353 75.9157 217.264 76.1227 217.199C76.3277 217.134 76.5187 217.099 76.6977 217.096C76.7387 217.095 76.7677 217.103 76.7867 217.12C76.7987 217.131 76.8087 217.149 76.8157 217.172L76.8827 217.421C76.8877 217.452 76.8837 217.473 76.8657 217.483C76.8567 217.488 76.8307 217.493 76.7907 217.498C76.4977 217.521 76.2157 217.611 75.9467 217.767C75.6197 217.956 75.4437 218.18 75.4217 218.44C75.4017 218.7 75.5577 218.984 75.8927 219.292C76.2307 219.603 76.5727 219.781 76.9167 219.827C77.2607 219.873 77.5907 219.805 77.9077 219.623C78.0227 219.557 78.1257 219.485 78.2187 219.406C78.3107 219.327 78.3767 219.254 78.4157 219.186L77.7057 218.533L77.1367 218.861C77.0787 218.895 77.0287 218.908 76.9837 218.901C76.9387 218.894 76.8917 218.869 76.8427 218.824L76.7427 218.732C76.6947 218.687 76.6717 218.649 76.6767 218.619C76.6797 218.588 76.7107 218.556 76.7677 218.522L77.6767 217.997C77.7397 217.961 77.7997 217.947 77.8537 217.956C77.9077 217.965 77.9637 217.995 78.0197 218.047L79.0327 218.979C79.0707 219.014 79.0957 219.043 79.1057 219.066C79.1177 219.088 79.1147 219.115 79.1017 219.146C78.9857 219.435 78.7007 219.71 78.2467 219.973C77.7577 220.253 77.2627 220.363 76.7607 220.3Z" fill="#455A64"/>
<path d="M88.1109 213.506C88.4489 213.816 88.3679 214.273 87.9299 214.526C87.4919 214.779 86.8639 214.732 86.5259 214.421C86.1879 214.11 86.2689 213.654 86.7069 213.401C87.1439 213.148 87.7729 213.195 88.1109 213.506Z" fill="#455A64"/>
<path d="M85.7049 212.482C84.9059 212.943 84.5579 213.661 84.7139 214.331C84.7459 214.467 84.9099 214.564 85.1009 214.561H85.1029C85.3439 214.558 85.5319 214.399 85.4909 214.228C85.3759 213.755 85.6229 213.248 86.1849 212.924C86.7479 212.599 87.4809 212.541 88.0859 212.73C88.3059 212.799 88.5629 212.701 88.6219 212.53L88.6229 212.528C88.6699 212.394 88.5769 212.255 88.4039 212.202C87.5439 211.938 86.5039 212.021 85.7049 212.482Z" fill="#455A64"/>
<path d="M84.7259 211.582C83.5389 212.267 82.9729 213.311 83.0949 214.319C83.1129 214.467 83.2779 214.581 83.4839 214.579H83.4879C83.7219 214.576 83.9019 214.427 83.8799 214.259C83.7739 213.437 84.2349 212.584 85.2059 212.023C86.1759 211.463 87.4239 211.329 88.4999 211.592C88.7189 211.645 88.9589 211.552 89.0159 211.387C89.0659 211.242 88.9529 211.099 88.7589 211.052C87.4449 210.732 85.9159 210.895 84.7259 211.582Z" fill="#455A64"/>
<path d="M60.6418 230.49L59.7988 229.714L61.2558 228.873L62.0988 229.648L60.6418 230.49Z" fill="#455A64"/>
<path d="M62.8288 229.227L61.1418 227.677L62.5998 226.836L64.2859 228.386L62.8288 229.227Z" fill="#455A64"/>
<path d="M65.0149 227.964L62.4849 225.639L63.9429 224.797L66.4729 227.123L65.0149 227.964Z" fill="#455A64"/>
<path d="M67.2009 226.703L63.8279 223.602L65.2859 222.76L68.6579 225.861L67.2009 226.703Z" fill="#455A64"/>
<path d="M155.954 171.404C155.642 171.348 155.364 171.379 155.169 171.492L149.719 174.629C149.366 174.833 149.373 175.253 149.736 175.586L151.269 176.995C151.471 177.181 151.753 177.314 152.064 177.371C152.197 177.395 152.326 177.403 152.447 177.395C152.604 177.384 152.739 177.346 152.849 177.283L158.298 174.146C158.651 173.942 158.644 173.522 158.281 173.188L156.748 171.779C156.547 171.594 156.265 171.461 155.954 171.404ZM152.059 177.143C151.946 177.123 151.823 177.057 151.722 176.964L150.189 175.555C149.922 175.31 149.915 174.976 150.176 174.826L155.625 171.689C155.689 171.652 155.762 171.63 155.836 171.625C155.877 171.622 155.917 171.624 155.958 171.632C156.071 171.652 156.194 171.718 156.295 171.81L157.828 173.219C158.096 173.465 158.102 173.799 157.842 173.949L152.393 177.086C152.294 177.144 152.175 177.164 152.059 177.143Z" fill="#455A64"/>
<path d="M151.476 174.475L153.29 176.142L152.433 176.634C152.36 176.676 152.213 176.681 152.171 176.643L150.823 175.403C150.63 175.225 150.625 174.972 150.81 174.86L151.476 174.475Z" fill="#455A64"/>
<path d="M151.877 174.25L152.897 173.658L154.71 175.325L153.685 175.912L151.877 174.25Z" fill="#455A64"/>
<path d="M153.298 173.434L154.318 172.842L156.137 174.514L155.112 175.102L153.298 173.434Z" fill="#455A64"/>
<path d="M155.859 172.136L157.166 173.337C157.406 173.558 157.295 173.846 156.878 174.086L156.533 174.284L154.719 172.617L155.533 172.147C155.628 172.095 155.807 172.088 155.859 172.136Z" fill="#455A64"/>
<path d="M156.962 171.672C157.111 171.584 157.488 171.747 157.803 172.036L158.088 172.298C158.403 172.587 158.54 172.899 158.395 172.994L158.132 173.166L156.691 171.831C156.691 171.831 156.812 171.76 156.962 171.672Z" fill="#455A64"/>
<path d="M141.844 180.703L146.314 176.891L147.66 180.571L145.23 179.492L141.844 180.703Z" fill="#455A64"/>
<path d="M87.2659 192.091L103.725 182.588C104.707 182.021 106.136 182.058 106.916 182.671C107.697 183.284 107.533 184.241 106.551 184.808L90.0909 194.311C89.1089 194.878 87.6799 194.84 86.8999 194.227C86.1209 193.615 86.2839 192.658 87.2659 192.091Z" fill="#263238"/>
<path d="M111.598 177.262C112.704 176.623 114.361 176.702 115.298 177.439C116.235 178.175 116.098 179.29 114.992 179.928C113.886 180.567 112.23 180.488 111.292 179.751C110.355 179.015 110.492 177.9 111.598 177.262Z" fill="#263238"/>
<path d="M135.338 208.149L135.319 208.16L133.375 206.633C132.683 206.089 131.544 205.979 130.837 206.388L128.453 207.764C127.745 208.173 127.733 208.947 128.425 209.491L130.369 211.018L130.351 211.028C129.81 211.34 129.801 211.931 130.33 212.346L134.251 215.426C134.78 215.842 135.648 215.926 136.189 215.613L141.176 212.734C141.717 212.422 141.727 211.831 141.197 211.416L137.276 208.337C136.746 207.92 135.879 207.836 135.338 208.149ZM128.978 209.171C128.584 208.862 128.591 208.421 128.994 208.189L131.378 206.813C131.78 206.581 132.428 206.643 132.822 206.953L134.766 208.48L130.922 210.699L128.978 209.171Z" fill="#455A64"/>
<path d="M149.617 257.953C150.039 258.285 149.999 258.593 149.503 258.88L148.859 259.252C148.363 259.538 147.905 259.519 147.481 259.186L130.371 245.745L128.263 252.359C128.108 252.79 127.718 252.961 127.1 252.875L126.323 252.775C126.036 252.733 125.823 252.641 125.682 252.5C125.542 252.359 125.502 252.191 125.57 251.997L128.08 244.129C128.143 243.964 128.233 243.834 128.348 243.741C128.465 243.647 128.603 243.555 128.76 243.464L129.405 243.092C129.901 242.806 130.361 242.827 130.783 243.158L149.617 257.953Z" fill="#455A64"/>
<path d="M140.68 244.33C140.051 243.807 139.531 243.18 139.116 242.455C138.702 241.73 138.501 240.964 138.517 240.159C138.532 239.354 138.815 238.54 139.37 237.711C139.921 236.883 140.843 236.098 142.131 235.354C143.42 234.61 144.678 234.107 145.905 233.838C147.137 233.574 148.306 233.486 149.418 233.573C150.53 233.662 151.569 233.908 152.538 234.316C153.506 234.721 154.361 235.218 155.109 235.804C156.296 236.736 157.043 237.738 157.352 238.814C157.661 239.887 157.683 241.167 157.416 242.65L156.321 252.595L167.674 246.042C168.193 245.741 168.674 245.764 169.113 246.111L169.544 246.449C169.966 246.779 169.916 247.095 169.397 247.395L155.503 255.417C155.005 255.703 154.547 255.681 154.125 255.351L153.694 255.013C153.503 254.862 153.378 254.68 153.32 254.464C153.262 254.251 153.267 253.955 153.335 253.576L154.675 242.669C154.809 241.911 154.879 241.259 154.885 240.709C154.889 240.159 154.825 239.668 154.688 239.238C154.553 238.808 154.344 238.42 154.06 238.075C153.777 237.729 153.415 237.384 152.975 237.038C151.692 236.031 150.258 235.488 148.673 235.413C147.087 235.339 145.481 235.769 143.853 236.709C142.295 237.608 141.451 238.61 141.327 239.712C141.201 240.814 141.669 241.907 142.734 242.988C142.918 243.195 142.98 243.387 142.916 243.57C142.852 243.748 142.75 243.878 142.615 243.956L141.937 244.347C141.463 244.62 141.043 244.613 140.68 244.33Z" fill="#455A64"/>
<path d="M166.949 234.252C167.14 234.401 167.22 234.566 167.186 234.74C167.155 234.914 167.026 235.067 166.8 235.198L165.174 236.138C164.676 236.424 164.218 236.402 163.796 236.072L162.418 234.989C162.226 234.838 162.137 234.675 162.149 234.5C162.16 234.323 162.277 234.169 162.503 234.04L164.129 233.1C164.356 232.969 164.605 232.911 164.878 232.924C165.149 232.937 165.379 233.018 165.572 233.169L166.949 234.252ZM176.999 242.144C177.191 242.295 177.269 242.457 177.237 242.634C177.204 242.808 177.077 242.961 176.85 243.09L175.224 244.03C174.726 244.316 174.268 244.296 173.846 243.964L172.468 242.883C172.277 242.732 172.185 242.569 172.197 242.391C172.207 242.216 172.325 242.062 172.552 241.931L174.178 240.991C174.403 240.862 174.652 240.804 174.925 240.817C175.196 240.83 175.429 240.911 175.62 241.062L176.999 242.144Z" fill="#455A64"/>
<path d="M176.034 216.174C176.554 215.874 177.034 215.897 177.475 216.243L177.904 216.581C178.02 216.67 178.091 216.766 178.121 216.866C178.149 216.966 178.171 217.067 178.18 217.166L178.121 226.864L178.799 226.473C179.95 225.808 181.122 225.289 182.311 224.914C183.501 224.542 184.671 224.342 185.818 224.319C186.965 224.296 188.084 224.459 189.175 224.808C190.265 225.155 191.288 225.707 192.244 226.458C193.203 227.209 193.845 227.992 194.175 228.806C194.507 229.62 194.562 230.434 194.347 231.25C194.131 232.066 193.66 232.866 192.934 233.65C192.208 234.434 191.27 235.159 190.119 235.825C188.853 236.555 187.584 237.1 186.312 237.455C185.042 237.81 183.831 238.008 182.684 238.044C181.534 238.082 180.48 237.978 179.525 237.734C178.567 237.492 177.763 237.128 177.108 236.645C176.936 236.51 176.87 236.365 176.91 236.212C176.95 236.059 177.071 235.923 177.275 235.806L177.748 235.532C177.93 235.427 178.144 235.358 178.389 235.319C178.636 235.282 178.948 235.349 179.325 235.522C180.138 235.915 180.947 236.144 181.757 236.209C182.57 236.278 183.366 236.24 184.149 236.102C184.932 235.963 185.683 235.744 186.401 235.447C187.119 235.148 187.785 234.825 188.397 234.472C189.277 233.964 189.993 233.432 190.543 232.88C191.095 232.328 191.456 231.759 191.634 231.173C191.811 230.59 191.78 230.002 191.536 229.41C191.294 228.82 190.819 228.247 190.11 227.691C188.694 226.578 187.177 226.072 185.559 226.171C183.942 226.272 182.261 226.821 180.523 227.825L177.54 229.547C177.042 229.833 176.584 229.811 176.164 229.481L175.733 229.143C175.579 229.022 175.478 228.906 175.429 228.79C175.382 228.674 175.354 228.554 175.349 228.425L175.354 218.916L165.119 224.825C164.623 225.111 164.163 225.089 163.741 224.759L163.31 224.421C162.871 224.075 162.9 223.759 163.396 223.472L176.034 216.174Z" fill="#455A64"/>
<path d="M209.09 223.616C209.51 223.948 209.472 224.256 208.976 224.543L208.331 224.915C207.834 225.201 207.375 225.179 206.953 224.849L189.841 211.408L187.735 218.02C187.58 218.451 187.19 218.624 186.571 218.537L185.795 218.438C185.508 218.396 185.294 218.305 185.152 218.162C185.013 218.023 184.974 217.855 185.041 217.661L187.551 209.793C187.613 209.628 187.702 209.498 187.819 209.405C187.936 209.31 188.074 209.218 188.231 209.128L188.876 208.756C189.372 208.47 189.832 208.491 190.252 208.822L209.09 223.616Z" fill="#455A64"/>
<path d="M151.423 286.201L238.316 236.032C240.655 234.681 244.159 234.849 246.141 236.405L265.898 251.923C267.88 253.48 267.591 255.837 265.251 257.188L178.356 307.357C176.016 308.708 172.513 308.54 170.531 306.983L150.776 291.466C148.794 289.908 149.083 287.551 151.423 286.201Z" fill="white"/>
<path d="M187.021 314.168L273.914 263.999C276.254 262.648 279.757 262.815 281.739 264.372L301.496 279.89C303.478 281.447 303.188 283.804 300.849 285.155L213.954 335.323C211.615 336.674 208.111 336.507 206.129 334.95L186.374 319.433C184.392 317.876 184.682 315.519 187.021 314.168Z" fill="white"/>
<path d="M222.619 342.135L309.512 291.966C311.851 290.615 315.355 290.782 317.337 292.339L337.094 307.857C339.076 309.414 338.787 311.771 336.447 313.122L249.552 363.291C247.213 364.642 243.709 364.475 241.727 362.917L221.972 347.4C219.99 345.843 220.28 343.486 222.619 342.135Z" fill="white"/>
<path d="M257.948 344.363C257.935 344.362 257.921 344.362 257.906 344.363C255.795 344.445 253.732 343.969 252.365 342.895L249.827 340.902C246.932 338.628 241.814 338.384 238.397 340.357C234.98 342.33 234.557 345.773 237.452 348.047L239.72 349.829C241.146 350.949 241.701 352.448 241.302 353.91L241.768 354.978C242.497 355.551 243.787 355.612 244.648 355.115L259.1 346.771C259.961 346.274 260.068 345.407 259.338 344.834C258.974 344.546 258.469 344.387 257.948 344.363ZM255.389 353.703C257.029 352.756 257.232 351.103 255.842 350.011L249.901 353.441C251.292 354.532 253.748 354.65 255.389 353.703Z" fill="#E0E0E0"/>
<path d="M222.408 315.738C222.395 315.737 222.381 315.737 222.366 315.738C220.255 315.82 218.192 315.344 216.825 314.27L214.287 312.277C211.392 310.003 206.274 309.759 202.857 311.731C199.44 313.704 199.017 317.147 201.912 319.421L204.18 321.203C205.606 322.323 206.161 323.822 205.762 325.284L206.228 326.352C206.957 326.925 208.247 326.986 209.108 326.489L223.561 318.145C224.422 317.648 224.529 316.781 223.799 316.208C223.434 315.921 222.929 315.763 222.408 315.738ZM219.849 325.078C221.489 324.131 221.693 322.478 220.303 321.386L214.362 324.816C215.751 325.908 218.208 326.025 219.849 325.078Z" fill="#E0E0E0"/>
<g opacity="0.3">
<path d="M254.359 223.058L228.181 202.496L186.324 336.531L212.502 357.093L254.359 223.058Z" fill="white"/>
<path d="M333.397 290.586L289.029 255.734L248.534 385.408L252.63 388.625C255.665 391.009 261.019 391.263 264.579 389.192L310.969 362.408L333.397 290.586Z" fill="white"/>
<path d="M162.505 317.822L204.362 183.787L170.106 156.88C166.287 153.881 159.487 153.555 154.973 156.158L154.333 156.533L136.174 167.012L103.541 271.51L162.505 317.822Z" fill="white"/>
</g>
<path d="M77.1249 370.991L63.2319 379.011C63.4169 374.053 63.8489 366.678 63.1649 361.714C58.9699 331.349 47.1409 321.337 41.5159 306.558C35.5929 290.994 42.8169 285.985 52.2009 288.784C60.5689 291.28 72.6779 303.664 76.4919 326.323C79.0259 341.4 78.5769 357.772 77.1249 370.991Z" fill="#BDE958"/>
<path opacity="0.65" d="M77.1249 370.991L63.2319 379.011C63.4169 374.053 63.8489 366.678 63.1649 361.714C58.9699 331.349 47.1409 321.337 41.5159 306.558C35.5929 290.994 42.8169 285.985 52.2009 288.784C60.5689 291.28 72.6779 303.664 76.4919 326.323C79.0259 341.4 78.5769 357.772 77.1249 370.991Z" fill="white"/>
<path d="M69.7599 375.243L68.3689 376.045C73.3379 340.643 61.2349 309.941 49.2879 297.26C49.0579 297.019 49.0689 296.632 49.3099 296.402C49.5619 296.172 49.9439 296.183 50.1739 296.424C62.1159 309.111 74.2139 340.02 69.7599 375.243Z" fill="white"/>
<path d="M67.135 376.757L59.317 381.272H59.311C55.155 369.034 50.887 364.132 45.587 356.083C40.758 348.758 35.144 344.221 32.16 339.072C29.518 334.512 27.533 328.786 31.459 325.319C37.707 319.8 45.862 325.639 51.471 331.949C56.316 337.407 66.064 351.922 67.135 376.757Z" fill="#BDE958"/>
<path opacity="0.3" d="M67.135 376.757L59.317 381.272H59.311C55.155 369.034 50.887 364.132 45.587 356.083C40.758 348.758 35.144 344.221 32.16 339.072C29.518 334.512 27.533 328.786 31.459 325.319C37.707 319.8 45.862 325.639 51.471 331.949C56.316 337.407 66.064 351.922 67.135 376.757Z" fill="white"/>
<path d="M63.927 378.608L62.788 379.27C59.507 359.914 46.36 337.519 38.188 332.23C37.902 332.045 37.818 331.658 38.009 331.366C38.194 331.074 38.575 330.99 38.867 331.181C47.326 336.666 60.444 358.955 63.927 378.608Z" fill="white"/>
<path d="M163.405 375.866C163.405 367.94 158.168 360.014 147.693 353.967C126.745 341.873 92.7789 341.873 71.8329 353.967C61.3579 360.014 56.1208 367.94 56.1208 375.866C56.1208 380.679 56.1208 384.629 56.1208 389.442C56.1208 397.368 61.3599 405.294 71.8329 411.341C92.7839 423.435 126.747 423.435 147.696 411.341C158.171 405.294 163.406 397.367 163.406 389.442C163.405 384.629 163.405 380.678 163.405 375.866Z" fill="#BDE958"/>
<path opacity="0.3" d="M163.405 375.866C163.405 367.94 158.168 360.014 147.693 353.967C126.745 341.873 92.7789 341.873 71.8329 353.967C61.3579 360.014 56.1208 367.94 56.1208 375.866C56.1208 380.679 56.1208 384.629 56.1208 389.442C56.1208 397.368 61.3599 405.294 71.8329 411.341C92.7839 423.435 126.747 423.435 147.696 411.341C158.171 405.294 163.406 397.367 163.406 389.442C163.405 384.629 163.405 380.678 163.405 375.866Z" fill="black"/>
<path d="M104.984 345.019C120.258 344.235 136.002 347.216 147.693 353.966C158.168 360.013 163.405 367.94 163.405 375.865C163.405 380.678 163.405 384.628 163.405 389.441C163.405 397.366 158.171 405.293 147.695 411.34C136.003 418.09 120.258 421.071 104.984 420.286V345.019Z" fill="#BDE958"/>
<path opacity="0.2" d="M104.984 345.019C120.258 344.235 136.002 347.216 147.693 353.966C158.168 360.013 163.405 367.94 163.405 375.865C163.405 380.678 163.405 384.628 163.405 389.441C163.405 397.366 158.171 405.293 147.695 411.34C136.003 418.09 120.258 421.071 104.984 420.286V345.019Z" fill="black"/>
<path d="M71.7369 353.911C61.2629 359.958 56.0259 367.884 56.0259 375.81C56.0259 383.736 61.2639 391.662 71.7389 397.709C92.6879 409.803 126.653 409.803 147.601 397.709C158.075 391.662 163.312 383.736 163.312 375.81C163.312 367.884 158.074 359.958 147.599 353.911C126.649 341.816 92.6849 341.816 71.7369 353.911Z" fill="#BDE958"/>
<path fill-rule="evenodd" clip-rule="evenodd" d="M128.008 381.454C127.13 381.258 126.148 381.149 125.207 381.522C124.266 381.895 123.663 382.089 122.912 382.613C122.16 383.138 121.211 383.721 120.657 384.187C120.041 384.705 119.364 385.246 117.579 384.775C115.794 384.304 109.921 382.67 104.701 380.065C97.995 376.718 95.214 373.742 94.077 372.832C92.94 371.923 92.871 371.361 93.726 370.75C94.581 370.139 97.484 368.127 98.838 367.409C100.192 366.691 99.699 366.071 98.855 365.227C98.011 364.383 92.489 359.91 91.353 359C90.216 358.091 89.591 357.478 88.845 357.275C88.099 357.072 84.931 357.24 81.522 358.229C78.114 359.218 76.117 363.197 76.324 365.049C76.511 366.709 77.092 368.792 79.121 371.007C80.351 372.35 81.966 374.07 84.418 376.253C94.728 385.431 112.966 390.815 114.194 391.234C115.422 391.653 124.18 394.663 131.968 394.25C139.755 393.837 142.693 391.176 143.961 390.221C145.229 389.265 145.252 388.214 145.022 387.579C144.792 386.945 144.553 386.311 144.306 385.759C144.046 385.178 144.18 384.372 140.815 383.763C137.363 383.139 128.886 381.65 128.008 381.454Z" fill="white"/>
<path opacity="0.2" d="M196.227 306.605C227.701 306.605 253.215 293.232 253.215 276.734C253.215 260.237 227.701 246.863 196.227 246.863C164.753 246.863 139.239 260.237 139.239 276.734C139.239 293.232 164.753 306.605 196.227 306.605Z" fill="black"/>
<path d="M221.618 295.521C221.618 295.521 239.699 289.005 245.593 279.449C246.878 263.8 243.625 255.119 242.17 249.725L209.795 253.503L216.996 283.378L221.618 295.521Z" fill="#37474F"/>
<path d="M234.907 276.838C238.103 271.303 240.879 258.024 240.888 253.506L149.756 254.905C149.756 254.905 146.555 270.344 147.127 281.435C147.127 281.468 147.136 281.495 147.136 281.528C147.137 281.533 147.14 281.538 147.141 281.543C149.065 286.295 153.594 289.215 163.921 293.694C183.03 301.974 208.959 300.71 221.622 295.52V291.299C221.622 291.299 231.711 282.372 234.907 276.838Z" fill="#455A64"/>
<path d="M332.644 178.045C331.692 178.098 331.003 178.688 329.176 179.423C331.073 178.031 333.774 175.964 335.048 173.315C335.239 172.917 335.418 172.295 335.361 171.858C335.308 171.446 334.97 170.3 334.294 170.124C334.294 170.124 335.208 168.911 336.019 167.877C336.682 167.033 338.033 164.987 336.512 164.374C335.307 163.889 333.723 164.601 332.043 165.756C332.842 164.75 333.365 163.866 333.313 163.301C333.159 161.61 331.985 160.843 328.872 162.779C325.708 164.747 322.58 166.808 319.191 168.377C316.281 169.724 312.337 171.35 309.097 170.482C308.718 170.38 308.354 170.153 308.18 169.801C308.086 169.61 308.052 169.395 308.045 169.182C308.016 168.328 308.391 167.514 308.823 166.778C310.284 164.288 313.319 160.941 310.867 158.203C310.43 157.715 309.78 157.367 309.257 157.877C307.176 159.905 305.001 161.885 302.911 163.902C300.928 165.814 298.564 167.903 296.947 170.14C295.086 172.714 293.519 175.377 290.798 178.964C288.077 182.551 284.558 185.506 278.558 191.916C274.995 195.723 269.531 201.679 269.531 201.679C269.531 201.679 257.989 181.844 253.407 173.955C245.05 159.563 238.086 156.003 224.61 154.607L229.284 187.849C229.284 187.849 244.809 218.217 250.783 228.07C256.758 237.923 261.861 239.37 265.699 238.779C277.71 236.778 283.981 220.892 299.986 197.529C301.29 195.625 304.497 191.884 310.216 191.134C312.457 190.84 314.948 190.338 316.414 190.072C318.188 189.75 321.323 188.681 322.985 187.983C326.499 186.507 326.565 186.778 331.377 182.522C331.971 181.997 334.347 179.656 334.093 178.905C333.88 178.275 333.311 178.007 332.644 178.045Z" fill="#C8856A"/>
<path d="M329.176 179.424C327.587 180.294 326.014 181.083 324.342 181.688C322.701 182.364 320.981 182.841 319.3 183.531C321.109 183.377 322.87 182.929 324.582 182.307C326.259 181.62 327.909 180.739 329.176 179.424Z" fill="#AF6152"/>
<path d="M297.648 184.773C297.655 184.426 297.696 184.077 297.788 183.741C297.965 183.094 298.287 182.464 298.652 181.904C299.379 180.786 300.393 179.834 301.543 179.16C304.031 177.702 307.49 177.551 309.997 179.04C310.067 179.082 310.159 179.347 310.009 179.325C307.283 178.938 304.552 178.69 302.058 180.134C299.995 181.328 298.78 183.607 298.195 185.861C298.14 186.073 297.917 186.019 297.869 185.832C297.769 185.449 297.64 185.18 297.648 184.773Z" fill="#AF6152"/>
<path d="M316.341 174.327C319.081 173.324 321.736 171.852 324.297 170.458C326.753 169.121 329.123 167.599 331.496 166.124C331.525 166.106 331.565 166.176 331.543 166.197C329.293 168.272 326.789 169.901 324.089 171.34C321.603 172.664 319.025 173.481 316.371 174.381C316.347 174.391 316.317 174.336 316.341 174.327Z" fill="#AF6152"/>
<path d="M316.725 179.269C319.465 178.265 322.12 176.794 324.681 175.4C325.665 174.864 326.634 174.3 327.593 173.721C328.534 173.154 329.511 172.608 330.387 171.947C330.657 171.743 330.928 171.538 331.198 171.334C331.546 171.071 331.853 170.783 332.246 170.582C332.647 170.378 333.086 170.246 333.534 170.2C333.576 170.196 333.638 170.218 333.621 170.257C333.072 170.401 332.568 170.683 332.112 171.021C331.807 171.247 331.523 171.498 331.246 171.756C330.995 171.99 330.738 172.179 330.472 172.394C329.649 173.058 328.791 173.677 327.907 174.258C326.796 174.988 325.646 175.657 324.473 176.282C321.987 177.607 319.409 178.423 316.755 179.324C316.731 179.332 316.702 179.277 316.725 179.269Z" fill="#AF6152"/>
<path d="M223.33 153.551C238.324 153.764 243.582 157.537 249.482 166.052C255.043 174.077 269.786 200.832 269.786 200.832L279.262 190.912C279.262 190.912 278.604 194.469 282.821 200.826C287.038 207.183 293.606 207.809 293.606 207.809C293.606 207.809 288.796 219.333 282.311 227.229C275.826 235.125 269.195 241.068 261.775 238.922C255.199 237.02 248.506 228.503 243.935 220.311C239.364 212.119 225.917 190.393 225.917 190.393L223.33 153.551Z" fill="#BDE958"/>
<path opacity="0.2" d="M257.957 222.6C259.156 214.693 263.869 204.867 269.786 200.834C269.786 200.834 269.189 199.75 268.199 197.971C259.184 204.584 257.635 215.459 257.957 222.6Z" fill="black"/>
<path d="M147.264 138.494C147.216 138.21 147.177 137.927 147.151 137.643C146.782 133.678 149.258 129.613 152.95 128.12C154.844 127.354 157.071 127.16 158.533 125.734C160.623 123.695 160.138 120.226 161.321 117.556C164.248 110.953 173.965 112.66 179.504 114.102C185.37 115.63 190.84 119.929 188.999 126.618C188.512 128.387 187.459 130.206 188.071 131.937C188.334 132.682 188.879 133.288 189.419 133.864C192.046 136.668 194.915 139.337 196.745 142.715C198.575 146.094 199.182 150.447 197.138 153.701C195.214 156.764 191.312 158.354 189.924 161.694C188.018 166.284 191.758 171.984 189.363 176.338C187.445 179.826 184.263 179.938 180.881 179.66C176.974 179.339 174.613 183.698 170.36 182.409C168.502 181.846 166.52 181.941 164.581 181.845C160.62 181.649 154.908 179.973 151.786 177.498C149.514 175.697 147.917 172.982 147.729 170.089C147.644 168.783 147.837 167.452 147.556 166.174C146.876 163.079 143.983 160.967 143.127 157.822C142.499 155.515 142.658 152.924 143.929 150.899C145.119 149.005 147.203 147.675 147.922 145.556C148.693 143.287 147.668 140.886 147.264 138.494Z" fill="#263238"/>
<path d="M197.947 280.114C171.22 280.114 152.656 271.33 148.03 262.607C149.782 252.955 151.845 246.294 153.505 240.937C155.647 234.022 157.195 229.024 156.839 222.04C156.675 218.834 156.138 214.089 155.57 209.066C154.603 200.521 153.507 190.836 154.091 186.976C156.647 170.088 160.827 160.011 167.238 155.283L176.006 154.195C176.116 154.19 190.31 153.439 205.97 153.439C208.311 153.439 210.689 153.456 213.064 153.494L223.154 153.994C232.932 162.446 243.415 176.821 247.058 186.79C252.909 202.802 241.55 214.397 241.434 214.513L241.317 214.63L241.304 214.795C240.722 221.96 239.468 232.203 238.955 236.274L238.917 236.595L238.952 236.693C238.985 236.785 242.297 245.995 244.582 258.768C241.575 268.143 228.463 279.306 201.305 280.07C200.176 280.099 199.055 280.114 197.947 280.114Z" fill="#FAFAFA"/>
<path d="M205.967 153.887C208.409 153.887 210.794 153.905 213.026 153.941L222.976 154.433C232.515 162.723 243.089 177.24 246.636 186.943C252.378 202.654 241.229 214.08 241.116 214.194L240.883 214.428L240.856 214.756C240.278 221.871 239.025 232.113 238.514 236.186C238.494 236.346 238.483 236.435 238.482 236.445L238.461 236.65L238.531 236.844C238.564 236.935 241.845 246.062 244.122 258.735C241.095 267.947 228.114 278.865 201.294 279.62C200.18 279.651 199.054 279.667 197.946 279.667C171.536 279.667 153.181 271.093 148.499 262.534C150.239 252.992 152.285 246.388 153.932 241.071C156.088 234.111 157.646 229.082 157.286 222.018C157.122 218.797 156.584 214.046 156.015 209.015C155.051 200.498 153.959 190.845 154.534 187.044C157.058 170.364 161.153 160.397 167.41 155.714L176.029 154.644C176.782 154.604 190.674 153.887 205.967 153.887ZM205.963 152.99C190.11 152.99 175.949 153.75 175.949 153.75L167.065 154.853C159.419 160.411 155.776 172.83 153.645 186.911C152.71 193.088 155.943 213.333 156.388 222.065C157.02 234.474 151.531 240.676 147.559 262.681C152.451 272.196 172.214 280.566 197.944 280.566C199.056 280.566 200.183 280.55 201.317 280.518C228.68 279.748 242.032 268.408 245.043 258.798C242.723 245.776 239.373 236.54 239.373 236.54C239.385 236.422 241.055 223.379 241.749 214.831C241.749 214.831 253.495 203.103 247.477 186.637C243.837 176.678 233.171 162.019 223.328 153.554L213.069 153.046C210.691 153.006 208.309 152.99 205.963 152.99Z" fill="#E0E0E0"/>
<path d="M241.437 84.2694C240.635 75.3204 230.612 74.3944 227.932 74.5634C224.272 74.7954 220.132 72.6234 217.865 69.6754C215.364 66.4214 210.33 64.4164 205.747 65.3514C198.511 66.8264 200.001 69.9044 193.853 71.6164C188.373 73.1424 184.777 73.5484 179.621 77.9564C176.525 80.6034 174.633 82.9724 175.039 87.0654C171.238 89.1374 165.585 102.396 172.327 117.649C175.793 125.489 180.26 129.303 185.729 135.937L191.35 136.252C193.446 131.581 198.176 132.734 202.623 131.88C205.485 130.772 207.249 127.726 210.11 126.617C213.017 125.49 216.298 126.624 219.393 126.251C221.796 125.962 224.28 124.673 226.722 125.432C232.247 128.028 241.007 123.576 240.72 117.028C240.613 115.043 239.63 113.068 240.114 111.14C240.749 108.613 243.546 107.35 245.118 105.272C246.883 102.94 247.016 99.3404 245.145 97.0934C241.331 92.5104 241.893 89.3584 241.437 84.2694Z" fill="#263238"/>
<path d="M217.905 153.267C217.905 153.267 216.773 153.183 214.795 152.914C212.288 152.573 212.604 150.533 212.504 148.065L212.502 144.661C217.7 144.945 222.178 143.974 224.993 142.103C229.718 138.962 233.264 134.084 233.839 118.186C234.071 111.766 232.344 108.679 232.512 107.24C233.504 98.6799 232.918 97.1199 231.147 92.5769C227.922 85.3199 218.993 82.2709 214.698 89.6589C203.961 80.3499 190.983 91.1779 190.77 104.447C191.715 115.455 188.657 113.424 186.485 113.787C183.693 106.808 176.258 105.736 173.059 109.986C170.164 113.832 169.92 119.972 174.817 125.834C179.587 131.545 185.392 128.331 185.519 127.23C185.519 127.23 185.649 144.814 185.611 147.761C185.573 150.706 184.881 152.314 181.696 152.875C178.774 153.389 175.95 153.749 175.95 153.749C188.493 171.692 224.382 166.126 217.905 153.267Z" fill="#C8856A"/>
<path d="M177.937 123.56C177.85 124.995 178.943 126.228 180.378 126.315C181.813 126.402 183.047 125.308 183.133 123.873C183.22 122.438 182.126 121.205 180.692 121.118C179.257 121.032 178.024 122.125 177.937 123.56Z" fill="#BDE958"/>
<path d="M206.942 124.021L215.785 126.882C215.039 129.413 212.455 130.824 210.014 130.035C207.572 129.245 206.197 126.553 206.942 124.021Z" fill="#AF6152"/>
<path d="M207.497 126.071C209.976 126.02 212.077 127.745 212.592 130.077C211.774 130.308 210.886 130.317 210.014 130.035C208.261 129.469 207.074 127.917 206.81 126.154C207.037 126.118 207.261 126.076 207.497 126.071Z" fill="#FFA8A7"/>
<path d="M231.611 98.7792L225.29 96.7092C225.8 94.9282 227.629 93.9492 229.375 94.5202C231.12 95.0922 232.121 96.9992 231.611 98.7792Z" fill="#263238"/>
<path d="M199.212 99.4325L205.511 97.0485C204.913 95.2705 203.018 94.3625 201.278 95.0215C199.54 95.6795 198.614 97.6555 199.212 99.4325Z" fill="#263238"/>
<path d="M208.981 108.375C208.843 109.801 207.575 110.846 206.148 110.708C204.722 110.57 203.677 109.302 203.815 107.875C203.953 106.449 205.221 105.404 206.648 105.542C208.075 105.681 209.12 106.949 208.981 108.375Z" fill="#263238"/>
<path d="M228.879 108.933C228.741 110.359 227.473 111.404 226.046 111.266C224.62 111.128 223.575 109.86 223.713 108.433C223.851 107.007 225.119 105.962 226.546 106.1C227.973 106.238 229.017 107.506 228.879 108.933Z" fill="#263238"/>
<path d="M212.502 144.658C201.965 143.549 190.34 138.479 187.794 132.021C187.794 132.021 188.097 138.561 195.251 142.733C203.833 147.738 212.502 147.787 212.502 147.787V144.658Z" fill="#AF6152"/>
<path d="M218.741 107.337C218.918 105.04 219.979 102.949 221.728 101.45C223.477 99.9514 225.706 99.2234 228.003 99.4014C232.737 99.7964 236.304 103.921 235.94 108.663C235.574 113.404 231.418 116.964 226.678 116.599C226.603 116.593 226.529 116.587 226.454 116.579C221.823 116.101 218.381 112.003 218.741 107.337ZM227.904 100.689C225.951 100.539 224.056 101.157 222.569 102.431C221.082 103.706 220.181 105.483 220.03 107.435C219.719 111.466 222.761 114.986 226.776 115.309C230.807 115.619 234.339 112.593 234.65 108.563C234.956 104.595 232.028 101.111 228.094 100.706C228.031 100.7 227.967 100.694 227.904 100.689Z" fill="#455A64"/>
<path d="M224.993 117.632L216.209 121.773L214.495 104.879L224.993 117.632Z" fill="#AF6152"/>
<path d="M196.718 107.394C197.084 102.652 201.24 99.0915 205.98 99.4575C208.262 99.6305 210.367 100.695 211.867 102.445C213.366 104.194 214.094 106.423 213.917 108.719C213.551 113.46 209.395 117.02 204.655 116.655C204.58 116.649 204.506 116.643 204.431 116.635C199.801 116.158 196.358 112.06 196.718 107.394ZM205.881 100.746C201.85 100.435 198.318 103.461 198.007 107.492C197.696 111.524 200.739 115.026 204.752 115.366C208.783 115.676 212.315 112.65 212.626 108.62C212.778 106.667 212.158 104.773 210.884 103.286C209.652 101.848 207.95 100.957 206.073 100.763C206.01 100.757 205.946 100.752 205.881 100.746Z" fill="#455A64"/>
<path d="M213.901 108.683C214.326 107.358 215.382 106.854 216.227 106.825C217.09 106.795 218.216 107.259 218.772 108.652L219.973 108.173C219.299 106.486 217.846 105.469 216.182 105.534C214.568 105.59 213.191 106.672 212.672 108.29L213.901 108.683Z" fill="#455A64"/>
<path d="M186.14 112.048C186.188 112.043 186.237 112.032 186.285 112.015L197.107 108.208C197.445 108.091 197.623 107.722 197.505 107.385C197.388 107.049 197.02 106.869 196.682 106.987L185.86 110.794C185.522 110.912 185.344 111.28 185.462 111.617C185.563 111.906 185.848 112.078 186.14 112.048Z" fill="#455A64"/>
<path d="M183.269 110.609L174.746 110.862C174.746 110.862 172.835 102.433 172.081 97.3733C171.932 96.3963 171.774 94.3283 171.748 94.0393C171.277 88.6873 172.187 82.6062 175.848 79.3372C178.504 76.9732 181.6 75.4833 184.712 74.5312C183.35 75.2912 182.901 75.5133 180.809 77.7723C179.46 79.3573 178.707 81.1483 178.279 83.1123C177.634 86.0723 177.951 87.5393 178.194 89.7733C178.294 90.6983 178.442 91.7983 178.67 93.0023C179.984 100.067 183.269 110.609 183.269 110.609Z" fill="#455A64"/>
<path d="M187.732 125.376C189.439 119.8 187.65 111.786 183.743 107.513C182.593 106.255 181.365 105.416 180.095 105.02C179.162 104.729 178.259 104.697 177.415 104.897C176.924 105.013 174.947 105.463 174.443 105.583C172.422 106.064 170.751 107.883 169.879 110.729C168.172 116.305 169.961 124.318 173.868 128.592C175.019 129.85 176.246 130.689 177.516 131.086C178.455 131.379 179.364 131.41 180.212 131.205C180.696 131.088 182.65 130.644 183.147 130.528C185.178 130.053 186.858 128.232 187.732 125.376Z" fill="#37474F"/>
<path d="M177.518 131.085C176.248 130.689 175.021 129.85 173.87 128.591C169.963 124.317 168.173 116.304 169.881 110.728C171.119 106.686 173.969 104.714 177.143 105.704C178.413 106.1 179.64 106.939 180.79 108.197C184.697 112.471 186.487 120.484 184.78 126.06C183.541 130.103 180.691 132.075 177.518 131.085Z" fill="#263238"/>
<path d="M184.163 125.868C185.812 120.483 184.089 112.771 180.316 108.643C178.428 106.578 176.385 105.803 174.607 106.217C174.362 106.274 173.383 106.501 173.138 106.558C171.359 106.968 169.846 108.568 169.021 111.263C167.372 116.648 169.094 124.36 172.868 128.488C174.755 130.552 176.798 131.328 178.574 130.914C178.82 130.857 179.804 130.629 180.052 130.571C181.828 130.159 183.339 128.56 184.163 125.868Z" fill="#F0F0F0"/>
<path d="M178.839 108.985C182.613 113.113 184.335 120.825 182.686 126.21C181.037 131.596 176.641 132.615 172.868 128.487C169.094 124.359 167.372 116.647 169.021 111.262C170.67 105.877 175.066 104.857 178.839 108.985Z" fill="#E0E0E0"/>
<path d="M182.686 126.209C184.335 120.824 182.613 113.112 178.839 108.984C176.954 106.923 174.915 106.147 173.14 106.557C172.643 106.672 171.731 106.948 171.234 107.064C169.459 107.477 167.95 109.075 167.126 111.766C165.477 117.151 167.199 124.863 170.973 128.991C172.857 131.052 174.896 131.828 176.67 131.419C177.168 131.304 178.078 131.028 178.574 130.913C180.351 130.5 181.862 128.901 182.686 126.209Z" fill="#BDE958"/>
<path opacity="0.15" d="M176.945 109.489C180.719 113.617 182.441 121.329 180.792 126.715C179.143 132.1 174.747 133.12 170.973 128.992C167.2 124.864 165.477 117.152 167.126 111.767C168.776 106.38 173.172 105.361 176.945 109.489Z" fill="white"/>
<path d="M174.46 114.545C176.442 116.713 177.347 120.764 176.481 123.592C175.615 126.421 173.306 126.956 171.324 124.788C169.342 122.62 168.437 118.569 169.303 115.74C170.169 112.912 172.478 112.377 174.46 114.545Z" fill="#263238"/>
<path d="M176.053 117.904L172.664 119.717L171.237 113.325C172.169 113.105 173.243 113.513 174.232 114.596C175.023 115.466 175.645 116.633 176.053 117.904Z" fill="#455A64"/>
<path d="M176.253 123.646C175.82 125.059 175.026 125.901 174.093 126.113L172.664 119.717L176.053 117.904C176.655 119.808 176.773 121.948 176.253 123.646Z" fill="#37474F"/>
<path d="M174.093 126.113C173.158 126.332 172.087 125.925 171.095 124.842C170.3 123.974 169.682 122.805 169.279 121.531L172.664 119.717L174.093 126.113Z" fill="#455A64"/>
<path d="M172.664 119.716L169.279 121.53C168.674 119.625 168.557 117.489 169.077 115.794C169.511 114.378 170.304 113.54 171.238 113.324L172.664 119.716Z" fill="#37474F"/>
<path d="M233.477 123.473C233.477 123.473 236.061 124.954 238.295 127.168C240.529 129.383 239.984 132.308 238.526 133.939L236.571 133.089C236.571 133.089 238.148 130.926 237.201 129.376C236.254 127.826 233.138 126.085 233.138 126.085C233.267 125.211 233.367 124.373 233.477 123.473Z" fill="black"/>
<path d="M237.964 132.427C236.485 131.259 235.464 132.119 233.677 134.669C231.89 137.219 232.525 138.168 233.826 139.035C235.127 139.902 236.423 139.21 237.808 137.078C239.366 134.68 239.558 133.686 237.964 132.427Z" fill="#BDE958"/>
<path opacity="0.1" d="M237.964 132.427C236.485 131.259 235.464 132.119 233.677 134.669C231.89 137.219 232.525 138.168 233.826 139.035C235.127 139.902 236.423 139.21 237.808 137.078C239.366 134.68 239.558 133.686 237.964 132.427Z" fill="black"/>
<path d="M211.844 200.862C217.296 197.633 219.998 196.442 222.434 196.014C224.87 195.586 233.524 192.997 236.79 192.527C238.862 192.229 239.374 195.468 236.586 197.391C234.438 198.872 229.066 200.563 226.684 201.56C224.302 202.557 219.342 207.424 219.342 207.424L211.844 200.862Z" fill="#AF6152"/>
<path d="M141.285 174.535C147.356 164.472 156.523 160.396 165.29 158.561C169.091 169.995 164.227 194.547 164.227 194.547L156.163 219.848C156.163 219.848 186.392 218.505 190.044 216.681C193.696 214.856 203.88 206.007 207.261 203.39C211.864 199.828 213.903 200.564 216.015 201.089C222.93 202.806 224.413 203.535 225.808 204.605C227.203 205.676 226.911 207.419 226.911 207.419C228.752 207.829 231.546 208.043 231.613 211.084C231.657 213.09 231.49 213.502 231.49 213.502C231.49 213.502 232.153 213.633 232.635 214.302C234.014 216.216 230.761 222.06 228.927 223.384C227.639 224.313 225.936 224.28 223.745 223.768C221.882 223.333 222.943 221.533 222.943 221.533L220.287 221.43C214.193 224.853 213.137 232.71 205.426 233.714C203.798 233.926 200.528 233.563 196.042 234.572C179.278 238.346 151.074 251.99 136.483 251.804C122.241 251.622 123.366 244.273 123.973 235.758C124.512 228.16 135.23 184.57 141.285 174.535Z" fill="#C8856A"/>
<path d="M226.91 207.419L218.739 204.957L226.846 206.27C226.937 206.666 226.961 207.05 226.91 207.419Z" fill="#AF6152"/>
<path d="M231.488 213.501L222.017 211.346L231.606 212.41C231.614 212.754 231.568 213.12 231.488 213.501Z" fill="#AF6152"/>
<path d="M222.293 220.084C223.522 219.055 223.661 218.39 223.661 218.39C223.661 218.39 225.981 218.572 227.025 218.496C227.466 218.446 227.909 218.368 228.34 218.257C228.868 218.101 229.402 217.91 229.822 217.525C229.484 217.981 228.964 218.3 228.424 218.499C227.947 218.689 227.448 218.79 226.936 218.856L226.276 219.958C226.637 220.03 226.968 220.192 227.234 220.433C227.626 220.788 227.84 221.27 227.95 221.744C227.746 221.295 227.439 220.905 227.074 220.623C226.703 220.364 226.231 220.225 225.809 220.264C223.648 220.543 222.942 221.53 222.942 221.53L220.286 221.427C220.286 221.427 221.635 220.634 222.293 220.084Z" fill="#AF6152"/>
<path d="M167.066 154.852C152.603 156.978 146.183 160.301 140.048 173.359C133.913 186.417 129.768 204.762 126.147 220.901C122.526 237.041 121.974 245.709 125.791 249.447C129.608 253.184 138.824 254.243 147.266 251.82C155.709 249.397 185.961 238.433 185.961 238.433C185.961 238.433 188.86 235.548 188.016 227.067C187.178 218.647 184.443 217.34 184.443 217.34L158.306 217.996C158.306 217.996 163.278 203.658 166.231 194.769C169.183 185.88 171.796 162.424 167.066 154.852Z" fill="#BDE958"/>
<path opacity="0.2" d="M159.532 214.447L158.306 217.995C151.47 219.031 141.986 227.793 140.036 231.218C141.834 225.662 147.489 216.38 159.532 214.447Z" fill="black"/>
<path d="M340.687 125.978C337.679 129.163 334.484 131.149 331.574 131.896C331.436 131.935 331.318 131.965 331.181 131.994C331.083 132.024 330.994 132.033 330.906 132.053C330.7 132.102 330.493 132.132 330.277 132.161C330.031 132.2 329.795 132.22 329.559 132.23C329.402 132.24 329.254 132.25 329.107 132.25H328.9C326.02 132.221 323.621 130.756 322.294 127.806C322.235 127.678 322.186 127.55 322.137 127.423C322.324 127.394 322.511 127.374 322.697 127.325C322.785 127.305 322.884 127.296 322.972 127.266C323.11 127.236 323.237 127.207 323.365 127.168C326.275 126.421 329.48 124.425 332.488 121.25C339.537 113.818 342.958 102.62 340.264 95.9841C340.844 95.8961 341.414 95.866 341.965 95.896C341.985 95.896 342.004 95.896 342.024 95.906C342.103 95.906 342.191 95.9061 342.27 95.9161C342.359 95.9261 342.447 95.926 342.526 95.945C342.624 95.945 342.713 95.955 342.801 95.975C345.19 96.329 347.146 97.7641 348.316 100.33C351.285 106.916 347.873 118.398 340.687 125.978Z" fill="#263238"/>
<path d="M339.04 140.409C338.79 140.02 338.124 140.048 337.542 140.451C336.834 140.93 336.127 141.38 335.426 141.79L342.813 146.069L342.806 146.055C342.737 146.02 342.681 145.965 342.633 145.895L339.04 140.409Z" fill="#263238"/>
<path d="M318.343 155.584L320.556 145.541C320.674 145.028 320.334 144.48 319.835 144.286C318.732 143.856 317.705 143.266 316.769 142.503C316.395 142.198 315.708 142.309 315.202 142.767L308.037 149.322C307.767 149.565 307.489 149.69 307.253 149.69C311.255 152.007 318.198 156.022 318.635 156.272C318.399 156.125 318.281 155.882 318.343 155.584Z" fill="#263238"/>
<path d="M360.243 104.154L366.256 104.494C366.423 104.501 366.575 104.543 366.693 104.605C366.284 104.369 362.781 102.337 359.369 100.367C359.362 101.283 359.313 102.226 359.23 103.176C359.182 103.683 359.633 104.12 360.243 104.154Z" fill="#263238"/>
<path d="M306.996 149.627C307.072 149.669 307.156 149.689 307.246 149.689C307.177 149.64 307.107 149.606 307.038 149.564C307.024 149.592 307.01 149.62 306.996 149.627Z" fill="#263238"/>
<path d="M306.774 149.391L303.584 142.344C303.397 141.921 303.577 141.172 303.993 140.672L310.707 132.536C311.123 132.037 311.407 131.246 311.359 130.76C311.186 128.922 311.193 126.973 311.373 124.961C311.414 124.455 310.971 124.018 310.36 123.983L304.34 123.643C303.736 123.608 303.362 123.157 303.521 122.637L306.837 111.47C306.996 110.95 307.662 110.395 308.328 110.235L314.917 108.647C315.583 108.487 316.325 107.926 316.589 107.399C317.636 105.304 318.815 103.244 320.133 101.254C320.473 100.734 320.653 99.9496 320.521 99.5056L318.378 92.2436C318.246 91.7996 318.51 91.0436 318.974 90.5576L326.673 82.4216C327.138 81.9426 327.713 81.8596 327.97 82.2476L331.556 87.7266C331.813 88.1146 332.472 88.0876 333.061 87.6916C334.517 86.6926 335.967 85.8536 337.403 85.1736C338.048 84.8686 338.742 84.2236 338.936 83.6966L342.737 73.5006C342.931 72.9736 343.618 72.4946 344.27 72.4326L351.282 71.7316C351.546 71.7106 351.775 71.7526 351.948 71.8496C352.198 71.9956 352.323 72.2516 352.253 72.5566L350.041 82.5926C349.93 83.1126 350.27 83.6536 350.762 83.8476C351.872 84.2776 352.898 84.8676 353.828 85.6306C354.203 85.9356 354.889 85.8316 355.396 85.3666L362.568 78.8186C362.936 78.4786 363.331 78.3676 363.595 78.4996C362.769 78.0206 349.542 70.3566 349.459 70.3086C349.383 70.2666 349.286 70.2536 349.188 70.2536C345.117 67.9026 341.088 65.5576 340.921 65.4536C340.748 65.3496 340.505 65.2936 340.228 65.3216L333.215 66.0156C332.563 66.0846 331.877 66.5636 331.682 67.0836L327.881 77.2796C327.68 77.8066 326.993 78.4516 326.348 78.7636C325.606 79.1106 324.864 79.5056 324.115 79.9356L316.756 75.6766C316.465 75.4826 316 75.6076 315.618 76.0096L307.919 84.1386C307.454 84.6236 307.191 85.3806 307.323 85.8306L309.466 93.0856C309.598 93.5366 309.418 94.3206 309.071 94.8336C307.76 96.8246 306.574 98.8916 305.534 100.986C305.271 101.513 304.528 102.068 303.863 102.228L297.274 103.816C296.608 103.976 295.935 104.53 295.783 105.058L292.467 116.218C292.37 116.544 292.474 116.849 292.717 117.029C292.863 117.147 300.18 121.357 300.18 121.357C300.173 122.377 300.215 123.375 300.305 124.346C300.354 124.825 300.069 125.615 299.653 126.122L292.932 134.251C292.523 134.757 292.335 135.506 292.53 135.923L295.721 142.977C295.769 143.081 295.839 143.157 295.922 143.206C296.179 143.359 306.471 149.324 306.97 149.608C306.885 149.564 306.816 149.495 306.774 149.391Z" fill="#263238"/>
<path d="M340.917 65.4629C340.749 65.3479 340.509 65.2949 340.226 65.3209L333.21 66.021C332.785 66.065 332.351 66.278 332.041 66.579L343.114 72.966C343.424 72.682 343.849 72.4699 344.266 72.4349L351.282 71.735C351.548 71.7169 351.769 71.753 351.937 71.841C351.512 71.602 341.147 65.6049 340.917 65.4629ZM316.753 75.676C316.461 75.49 316 75.6139 315.619 76.0129L307.913 84.1439C307.656 84.4189 307.47 84.764 307.373 85.109L318.437 91.452C318.543 91.133 318.729 90.8049 318.977 90.5569L326.675 82.426C327.038 82.054 327.463 81.921 327.756 82.063L316.753 75.676ZM306.833 111.471C306.877 111.311 306.975 111.152 307.108 111.001L296.017 104.623C295.911 104.765 295.822 104.915 295.778 105.057L292.465 116.227C292.368 116.546 292.474 116.847 292.713 117.033C292.731 117.042 292.766 117.068 292.837 117.113L300.136 121.338C300.162 121.356 300.18 121.365 300.18 121.365L303.848 123.5C303.547 123.314 303.414 122.995 303.52 122.641L306.833 111.471ZM306.771 149.391L303.582 142.34C303.485 142.127 303.485 141.817 303.582 141.499L292.509 135.094C292.429 135.413 292.429 135.714 292.527 135.927L295.716 142.978C295.769 143.084 295.84 143.164 295.92 143.208L295.955 143.226C296.611 143.607 306.089 149.099 306.94 149.595C306.869 149.541 306.807 149.479 306.771 149.391Z" fill="#37474F"/>
<path d="M366.728 104.625C366.721 104.618 366.707 104.611 366.693 104.604C366.575 104.542 366.423 104.5 366.256 104.493L360.243 104.153C359.633 104.118 359.182 103.681 359.23 103.175C359.313 102.225 359.362 101.281 359.369 100.366C359.376 99.3458 359.334 98.3478 359.237 97.3758C359.195 96.8968 359.48 96.1068 359.896 95.5998L366.61 87.4708C367.026 86.9648 367.207 86.2148 367.019 85.7988L363.828 78.7448C363.786 78.6478 363.717 78.5718 363.634 78.5228C363.62 78.5158 363.606 78.5088 363.593 78.5018C363.329 78.3698 362.934 78.4808 362.566 78.8208L355.394 85.3688C354.888 85.8338 354.201 85.9378 353.826 85.6328C352.896 84.8698 351.87 84.2798 350.76 83.8498C350.267 83.6558 349.928 83.1148 350.039 82.5948L352.252 72.5588C352.321 72.2538 352.196 71.9968 351.947 71.8518C351.774 71.7548 351.545 71.7128 351.281 71.7338L344.269 72.4348C343.617 72.4968 342.93 72.9758 342.736 73.5028L338.935 83.6988C338.741 84.2258 338.047 84.8708 337.402 85.1758C335.966 85.8558 334.517 86.6948 333.06 87.6938C332.47 88.0888 331.811 88.1168 331.555 87.7288L327.969 82.2498C327.712 81.8618 327.137 81.9448 326.672 82.4228L318.973 90.5588C318.508 91.0438 318.245 91.8008 318.377 92.2438L320.52 99.5058C320.652 99.9498 320.471 100.734 320.131 101.254C318.813 103.245 317.634 105.305 316.587 107.399C316.323 107.926 315.581 108.488 314.915 108.647L308.326 110.235C307.66 110.395 306.994 110.949 306.835 111.47L303.52 122.637C303.36 123.157 303.735 123.608 304.338 123.643L310.359 123.983C310.969 124.018 311.413 124.455 311.372 124.961C311.192 126.973 311.185 128.922 311.358 130.76C311.406 131.245 311.122 132.036 310.706 132.536L303.992 140.672C303.576 141.171 303.396 141.92 303.583 142.344L306.773 149.391C306.815 149.495 306.884 149.564 306.967 149.613C306.967 149.62 306.967 149.62 306.974 149.62C306.981 149.627 306.988 149.627 306.995 149.627C307.071 149.669 307.154 149.689 307.245 149.689H307.252C307.488 149.689 307.765 149.564 308.036 149.321L315.201 142.766C315.707 142.308 316.394 142.197 316.768 142.502C317.705 143.265 318.731 143.855 319.834 144.285C320.333 144.479 320.673 145.027 320.555 145.54L318.342 155.583C318.28 155.881 318.398 156.124 318.634 156.27C318.641 156.277 318.648 156.277 318.655 156.284C318.821 156.381 319.05 156.43 319.314 156.402L326.326 155.708C326.978 155.639 327.665 155.16 327.859 154.64L331.667 144.444C331.861 143.917 332.555 143.272 333.2 142.96C333.935 142.613 334.684 142.218 335.427 141.788C336.128 141.379 336.835 140.928 337.543 140.449C338.125 140.047 338.791 140.019 339.041 140.407L342.634 145.893C342.682 145.962 342.738 146.018 342.807 146.053C343.098 146.233 343.549 146.108 343.924 145.713L351.63 137.577C352.088 137.098 352.351 136.335 352.219 135.891L350.076 128.636C349.944 128.185 350.132 127.401 350.472 126.888C351.79 124.897 352.969 122.831 354.009 120.736C354.273 120.209 355.015 119.654 355.687 119.494L362.269 117.906C362.942 117.746 363.608 117.192 363.76 116.664L367.082 105.504C367.186 105.138 367.041 104.805 366.728 104.625ZM331.57 131.897C331.438 131.932 331.313 131.966 331.182 131.994C331.085 132.022 330.995 132.036 330.905 132.057C330.697 132.099 330.489 132.133 330.281 132.161C330.036 132.196 329.796 132.215 329.557 132.231C329.406 132.24 329.257 132.245 329.108 132.247C329.037 132.248 328.967 132.248 328.897 132.247C326.018 132.215 323.622 130.755 322.29 127.805C321.791 126.702 321.471 125.461 321.326 124.129C321.243 123.47 321.208 122.79 321.215 122.09C321.257 115.73 324.523 107.85 329.913 102.156C331.654 100.318 333.45 98.8818 335.226 97.8488C335.816 97.5018 336.412 97.1968 336.995 96.9468C338.743 96.1768 340.428 95.8228 341.968 95.8928C341.989 95.8928 342.003 95.8928 342.024 95.8998C342.107 95.8998 342.191 95.9068 342.274 95.9138C342.364 95.9208 342.447 95.9278 342.531 95.9418C342.621 95.9488 342.711 95.9558 342.801 95.9768C345.194 96.3238 347.15 97.7658 348.315 100.333C351.29 106.915 347.878 118.401 340.693 125.982C337.681 129.158 334.483 131.148 331.57 131.897Z" fill="#455A64"/>
<path d="M342.46 103.576L338.755 101.439C338.755 101.439 338.752 101.437 338.75 101.437L338.716 101.418L338.713 101.424C337.068 100.495 334.811 100.635 332.315 102.076C327.288 104.978 323.212 112.037 323.212 117.842C323.212 120.74 324.229 122.776 325.87 123.729V123.73L325.878 123.734L325.879 123.735L329.25 125.659L330.055 124.312C330.887 124.121 331.752 123.824 332.666 123.296C337.693 120.394 341.768 113.335 341.77 107.53C341.77 106.668 341.654 105.909 341.484 105.205L342.46 103.576Z" fill="#BDE958"/>
<path opacity="0.1" d="M323.214 117.84C323.214 120.739 324.228 122.774 325.869 123.726V123.73L325.879 123.733L329.251 125.659L330.056 124.313C330.885 124.121 331.752 123.823 332.667 123.295C335.357 121.743 337.776 118.995 339.441 115.891L326.239 108.271C324.383 111.264 323.214 114.732 323.214 117.84Z" fill="black"/>
<path opacity="0.4" d="M342.46 103.576L338.756 101.438C338.753 101.438 338.753 101.438 338.753 101.438L338.715 101.417L338.712 101.424C337.067 100.495 334.813 100.633 332.315 102.075C329.978 103.422 327.847 105.669 326.24 108.27L339.442 115.89C340.891 113.193 341.772 110.226 341.772 107.53C341.772 106.666 341.656 105.909 341.484 105.203L342.46 103.576Z" fill="white"/>
<path d="M335.836 104.094C330.809 106.996 326.733 114.055 326.733 119.86C326.733 125.665 330.808 128.018 335.835 125.115C340.862 122.213 344.938 115.154 344.938 109.349C344.939 103.545 340.863 101.192 335.836 104.094Z" fill="#BDE958"/>
<path d="M340.338 106.68C339.655 106.401 338.885 106.672 338.621 107.283L333.936 118.112L332.71 117.011C332.174 116.529 331.334 116.516 330.836 116.984C330.342 117.452 330.377 118.226 330.914 118.709L333.57 121.094C333.825 121.323 334.157 121.455 334.504 121.464C334.591 121.466 334.679 121.461 334.768 121.447C335.196 121.378 335.547 121.118 335.704 120.751L341.093 108.296C341.358 107.684 341.019 106.959 340.338 106.68Z" fill="white"/>
<path d="M55.6929 159.465L55.6909 101.223C55.6909 100.061 56.5069 98.6469 57.5129 98.0659L122.78 60.4599C123.787 59.8789 125.414 59.8869 126.415 60.4779L131.939 63.7859C132.94 64.3769 133.751 65.7989 133.751 66.9608L133.754 125.203C133.754 126.365 132.938 127.779 131.931 128.36L66.6639 165.966C65.6569 166.547 64.0299 166.539 63.0289 165.948L57.5049 162.64C56.5039 162.049 55.6929 160.628 55.6929 159.465Z" fill="#BDE958"/>
<path opacity="0.35" d="M133.755 125.203L133.752 66.9615C133.752 65.7995 132.936 65.3275 131.929 65.9095L66.6619 103.515C65.6549 104.096 64.8389 105.51 64.8389 106.672L64.8409 164.914C64.8409 166.077 65.6569 166.548 66.6639 165.966L107.67 142.375L121.494 146.943C123.278 147.533 124.942 145.777 124.258 144.027L120.68 134.879L131.931 128.361C132.939 127.779 133.755 126.366 133.755 125.203Z" fill="white"/>
<path opacity="0.15" d="M66.3659 166.111C65.4989 166.446 64.8409 165.961 64.8379 164.913L64.8419 106.675C64.8449 106.091 65.0469 105.448 65.3789 104.877L56.1879 99.4902C55.8779 100.049 55.6889 100.663 55.6919 101.225L55.6929 159.47C55.6909 160.628 56.5009 162.047 57.5049 162.643L63.0259 165.949C63.9369 166.483 65.3619 166.544 66.3659 166.111Z" fill="black"/>
<path d="M133.755 125.203L133.752 66.9615C133.752 65.7995 132.936 65.3275 131.929 65.9095L66.6619 103.515C65.6549 104.096 64.8389 105.51 64.8389 106.672L64.8409 164.914C64.8409 166.077 65.6569 166.548 66.6639 165.966L107.67 142.375L121.494 146.943C123.278 147.533 124.942 145.777 124.258 144.027L120.68 134.879L131.931 128.361C132.939 127.779 133.755 126.366 133.755 125.203Z" fill="#BDE958"/>
<path opacity="0.35" d="M133.755 125.203L133.752 66.9615C133.752 65.7995 132.936 65.3275 131.929 65.9095L66.6619 103.515C65.6549 104.096 64.8389 105.51 64.8389 106.672L64.8409 164.914C64.8409 166.077 65.6569 166.548 66.6639 165.966L107.67 142.375L121.494 146.943C123.278 147.533 124.942 145.777 124.258 144.027L120.68 134.879L131.931 128.361C132.939 127.779 133.755 126.366 133.755 125.203Z" fill="white"/>
<path d="M79.6389 120.323C77.1529 121.758 75.1379 125.609 75.1379 128.924C75.1379 132.239 77.1529 133.762 79.6389 132.327C82.1249 130.892 84.1399 127.041 84.1399 123.726C84.1399 120.411 82.1249 118.888 79.6389 120.323ZM100.72 108.151C98.2339 109.586 96.2189 113.437 96.2189 116.752C96.2189 120.067 98.2339 121.59 100.72 120.155C103.206 118.72 105.222 114.869 105.222 111.554C105.222 108.24 103.206 106.716 100.72 108.151ZM121.802 95.9795C119.316 97.4145 117.301 101.266 117.301 104.581C117.301 107.896 119.316 109.419 121.802 107.984C124.288 106.549 126.303 102.698 126.303 99.3825C126.304 96.0675 124.288 94.5445 121.802 95.9795Z" fill="white"/>
<path d="M458.816 384.504C458.816 384.504 458.873 385.397 458.838 386.095C458.815 386.564 458.516 387.278 457.491 388.176C455.706 389.74 451.589 390.789 448.322 390.28C445.459 389.833 444.368 389.164 442.869 387.803C441.166 386.256 439.794 384.519 439.1 383.954C438.061 383.108 436.07 382.083 433.461 381.262C430.715 380.398 425.44 378.66 423.2 374.727C420.961 370.794 421.894 367.727 421.894 367.727L458.816 384.504Z" fill="#263238"/>
<path d="M439.754 365.34C445.647 366.895 451.315 376.603 458.018 373.464C458.381 377.256 459.682 379.769 458.816 384.503C456.221 388.332 449.217 389.417 445.209 387.246C443.162 385.888 442.437 384.455 440.441 383.002C438.863 381.853 437.099 381.212 435.125 380.56C433.318 379.964 430.23 378.721 428.727 377.931C422.002 374.109 420.262 367.713 423.323 364.416C425.768 361.783 430.427 362.879 439.754 365.34Z" fill="#455A64"/>
<path d="M436.897 364.596L436.052 364.382C433.146 364.348 430.283 365.578 428.254 367.701C426.088 369.968 425.637 374.555 425.641 375.708L425.849 375.895C425.849 375.895 425.69 376.86 424.25 374.973C422.81 373.086 421.497 370.761 421.572 367.841C421.647 364.921 423.371 362.789 427.039 362.715C429.794 362.659 437.02 364.009 436.897 364.596Z" fill="#FAFAFA"/>
<path d="M426.472 400.316C426.562 400.314 426.426 402.318 426.31 402.534C426.017 403.08 425.274 403.367 424.745 403.527C421.613 404.48 418.307 404.562 415.194 405.49C413.147 406.1 411.129 406.822 409.171 407.703C407.164 408.606 405.32 409.58 403.191 410.149C398.59 411.379 393.124 411.423 389.709 410.126C383.32 407.699 383.655 405.639 383.671 403.323C383.69 401.006 426.472 400.316 426.472 400.316Z" fill="#263238"/>
<path d="M425.08 384.9C426.264 389.608 427.582 396.67 426.471 400.314C425.207 401.721 420.852 402.658 417.05 403.316C413.48 403.934 410.249 405.028 407.047 406.945C399.734 410.434 387.357 409.776 383.899 404.54C381.529 397.004 395.792 396.455 404.028 390.551C406.092 389.072 406.426 387.694 407.021 385.395C407.023 385.396 420.215 386.168 425.08 384.9Z" fill="#455A64"/>
<path d="M402.453 408.477C403.146 406.966 403.79 402.415 400.881 399.241C397.972 396.067 393.916 395.419 392.17 395.811C390.118 396.286 386.306 398.083 384.768 399.789C383.231 401.495 382.543 404.257 385.254 406.313C387.965 408.369 393.281 410.512 402.453 408.477Z" fill="#FAFAFA"/>
<path d="M457.731 325.5C457.155 315.602 453.434 307.416 453.522 301.952C453.693 291.445 453.143 284.476 453.993 275.749C454.898 266.453 455.212 258.75 454.791 252.171C454.37 245.59 453.213 240.134 452.317 231.865C452.317 231.865 401.196 228.638 400.15 247.948C399.104 267.258 400.448 316.469 401.088 324.953C401.476 333.555 405.919 381.072 406.045 387.137C414.856 393.536 425.874 388.226 425.874 388.226C427.131 366.673 431.221 353.133 427.381 334.111C427.382 334.113 429.615 306.005 429.615 306.005C429.615 306.005 437.76 357.392 440.848 373.58C445.297 379.664 456.156 377.344 458.122 373.573C457.818 353.681 458.43 337.518 457.731 325.5Z" fill="#37474F"/>
<path d="M429.614 306.004L431.783 273.744C431.783 273.744 440.434 272.065 446.69 264.195C445.069 270.42 438.217 275.938 433.836 277.54L432.441 299.414L433.408 329.637L429.614 306.004Z" fill="#263238"/>
<path d="M395.011 232.218C393.127 228.337 390.894 225.533 388.218 223.068C383.518 224.246 377.054 225.68 374.452 226.152C371.367 226.711 366.435 227.969 363.01 226.611C361.997 226.209 361.066 225.638 359.836 225.006C358.836 224.492 357.972 224.208 356.862 223.879C354.512 223.182 352.007 223.358 349.573 223.276C349.422 223.271 349.268 223.266 349.124 223.313C348.811 223.416 348.619 223.755 348.609 224.084C348.599 224.413 348.738 224.73 348.915 225.007C349.571 226.035 350.994 226.423 352.082 226.814C353.28 227.245 354.535 227.667 355.465 228.577C355.539 228.649 355.616 228.741 355.601 228.843C355.58 228.982 355.412 229.038 355.274 229.062C351.528 229.728 347.659 228.925 344.088 227.614C343.286 227.319 342.484 226.997 341.638 226.878C340.9 226.775 339.917 226.887 339.271 227.278C338.938 227.48 338.779 227.76 338.69 228.153C338.547 228.782 338.943 229.047 339.468 229.36C338.898 229.276 338.32 229.192 337.746 229.256C337.173 229.32 336.596 229.55 336.23 229.995C335.863 230.44 335.762 231.125 336.086 231.601C336.281 231.888 336.597 232.067 336.907 232.224C337.125 232.334 337.346 232.439 337.57 232.537C337.79 232.633 338.012 232.724 338.236 232.808C338.608 232.948 338.961 233.089 339.235 233.389C339.502 233.683 339.417 234.141 339.48 234.513C339.571 235.054 339.909 235.529 340.329 235.881C340.749 236.233 341.249 236.474 341.752 236.693C343.868 237.613 346.117 238.187 348.379 238.64C348.727 238.71 349.077 238.777 349.402 238.918C349.47 238.947 349.547 238.996 349.543 239.07C349.539 239.156 349.433 239.192 349.348 239.205C347.826 239.435 347.343 239.519 345.837 239.226C345.132 239.092 344.032 238.71 343.315 238.702C342.598 238.695 341.881 238.809 341.383 239.325C341.308 239.403 341.237 239.493 341.219 239.6C341.102 240.319 343.377 241.054 343.851 241.22C346.095 242.006 348.846 242.421 351.766 242.346C354.991 242.263 357.614 240.714 360.817 240.409C364.092 240.097 364.311 240.038 368.989 239.704C374.685 239.298 385.403 238.47 390.335 237.866C392.96 237.544 395.06 237.285 396.958 236.66C396.36 235.167 395.722 233.682 395.011 232.218Z" fill="#FFA8A7"/>
<path d="M354.122 232.856C352.967 232.775 351.813 232.751 350.657 232.638C349.571 232.531 348.492 232.346 347.428 232.105C346.295 231.848 345.178 231.528 344.073 231.183C342.895 230.815 341.752 230.366 340.556 230.05C340.525 230.042 340.523 230.091 340.545 230.103C341.578 230.635 342.673 231.052 343.775 231.464C344.845 231.864 345.941 232.213 347.064 232.466C349.331 232.977 351.835 233.188 354.116 232.965C354.164 232.96 354.175 232.859 354.122 232.856ZM352.959 236.098C351.803 236.017 350.649 235.994 349.494 235.881C348.408 235.775 347.329 235.589 346.265 235.348C345.132 235.091 344.015 234.77 342.91 234.425C341.732 234.057 340.589 233.607 339.394 233.29C339.362 233.282 339.361 233.332 339.383 233.343C340.416 233.876 341.511 234.294 342.612 234.707C343.682 235.108 344.778 235.457 345.901 235.71C348.168 236.221 350.672 236.432 352.954 236.206C353.001 236.203 353.012 236.102 352.959 236.098Z" fill="#F28F8F"/>
<path d="M421.358 173.661L423.14 186.712L440.869 185.81L438.952 171.676L421.358 173.661Z" fill="#FFA8A7"/>
<path d="M414.299 149.256C412.937 150.988 408.696 156.216 408.534 157.218L411.996 159.337L414.299 149.256Z" fill="#F28F8F"/>
<path d="M424.156 136.131C418.678 135.542 415.125 139.425 413.532 151.084C413.47 151.541 412.793 152.258 412.281 154.003C410.086 161.486 411.314 168.61 412.579 170.506C415.753 173.058 419.281 174.01 424.393 173.575C428.289 173.244 438.224 172.06 443.263 166.801C449.189 160.613 452.182 151.287 447.973 146.448C442.049 139.637 427.174 136.455 424.156 136.131Z" fill="#FFA8A7"/>
<path d="M412.58 170.506C413.281 171.554 418.237 174.127 421.388 174.328L421.389 171.876C421.389 171.876 416.894 171.858 412.58 170.506Z" fill="#F28F8F"/>
<path d="M423.074 156.563C423.455 157.455 424.358 157.534 424.904 156.866C425.56 156.064 426.073 155.199 426.903 154.549C427.863 153.797 429.074 153.312 430.29 153.404C434.889 153.754 433.767 159.812 431.509 161.92C427.814 165.37 425.85 162.39 425.85 162.39C425.85 162.39 423.199 168.25 427.064 171.674C427.064 171.674 433.738 174.559 438.979 172.932C442.901 168.706 445.525 166.041 448.161 162.406C454.408 153.794 454.416 145.279 450.411 142.843C450.636 139.786 448.982 135.194 442.706 132.541C436.726 130.013 432.724 130.264 428.4 130.504C424.076 130.744 418.762 132.717 414.749 129.363C413.743 131.768 414 134.662 415.414 136.852C414.137 136.279 412.458 136.894 411.853 138.155C411.248 139.417 411.822 141.111 413.068 141.747C412.184 142.186 411.773 143.342 412.089 144.278C412.405 145.214 413.353 145.866 414.337 145.938C415.379 146.014 416.029 145.915 417.054 145.765C418.315 149.297 422.301 150.532 424.668 150.383C424.602 150.37 424.296 150.867 424.251 150.932C424.116 151.129 423.99 151.333 423.875 151.543C423.645 151.962 423.455 152.405 423.309 152.861C423.017 153.772 422.899 154.741 422.975 155.695C423.001 155.995 422.953 156.28 423.074 156.563Z" fill="#263238"/>
<path d="M443.346 178.943C449.936 178.633 456.47 180.583 460.469 189.747C464.255 198.421 469.573 210.944 471.528 217.241C472.481 220.312 474.225 223.073 468.496 228.483C460.657 235.885 450.921 241.006 450.921 241.006L445.161 228.672L454.163 220.036L450.191 211.786L443.346 178.943Z" fill="#455A64"/>
<path d="M454.164 220.035C455.109 221.593 457.285 223.761 459.501 224.542C456.97 225.155 454.19 222.431 453.341 220.824L454.164 220.035Z" fill="#263238"/>
<path d="M448.093 180.905C452.692 183.479 456.185 192.072 455.847 199.244C455.633 203.783 454.037 215.504 452.678 225.867C452.25 229.132 453.549 234.64 454.152 241.264C454.599 246.176 455.153 251.364 455.153 251.364C455.153 251.364 448.496 259.03 431.576 260.026C409.979 261.297 399.521 255.688 399.521 255.688C399.521 255.688 400.281 238.477 400.802 224.542C401.574 203.877 401.617 197.831 404.848 190.797C405.916 188.718 407.034 184.087 410.553 183.172C413.341 182.447 419.772 180.907 422.318 180.519C426.493 181.594 437.319 181.684 440.001 179.4L439.957 178.799C444.601 178.743 445.256 179.317 448.093 180.905Z" fill="#BDE958"/>
<g opacity="0.4">
<path d="M448.093 180.905C452.692 183.479 456.185 192.072 455.847 199.244C455.633 203.783 454.037 215.504 452.678 225.867C452.25 229.132 453.549 234.64 454.152 241.264C454.599 246.176 455.153 251.364 455.153 251.364C455.153 251.364 448.496 259.03 431.576 260.026C409.979 261.297 399.521 255.688 399.521 255.688C399.521 255.688 400.281 238.477 400.802 224.542C401.574 203.877 401.617 197.831 404.848 190.797C405.916 188.718 407.034 184.087 410.553 183.172C413.341 182.447 419.772 180.907 422.318 180.519C426.493 181.594 437.319 181.684 440.001 179.4L439.957 178.799C444.601 178.743 445.256 179.317 448.093 180.905Z" fill="white"/>
</g>
<path d="M410.552 183.17C402.219 185.244 399.544 190.764 397.057 197.996C395.947 201.222 387.962 222.381 387.962 222.381L373.355 225.856C373.355 225.856 371.796 229.254 373.193 233.522C374.59 237.79 376.478 239.818 376.478 239.818C376.478 239.818 391.841 238.703 396.383 237.742C398.768 237.237 402.587 235.455 405.005 230.799C407.422 226.144 412.326 215.99 413.16 213.909C415.83 207.248 416.987 202.421 416.984 199.795C416.977 193.34 415.89 185.307 410.552 183.17Z" fill="#455A64"/>
<path d="M429.559 61.9688C414.983 61.9928 403.155 73.8818 403.192 88.4458C403.228 101.514 412.796 112.37 425.28 114.449L428.258 122.095C428.768 123.396 430.616 123.396 431.127 122.083L434.069 114.424C446.554 112.297 456.072 101.392 456.035 88.3358C455.999 73.7598 444.123 61.9318 429.559 61.9688ZM429.632 112.734C416.175 112.734 405.283 101.83 405.283 88.3848C405.283 74.9398 416.175 64.0358 429.632 64.0358C443.077 64.0358 453.969 74.9398 453.969 88.3848C453.969 101.83 443.077 112.734 429.632 112.734Z" fill="#455A64"/>
<path d="M429.627 112.733C443.074 112.733 453.975 101.832 453.975 88.3851C453.975 74.9381 443.074 64.0371 429.627 64.0371C416.18 64.0371 405.279 74.9381 405.279 88.3851C405.279 101.832 416.18 112.733 429.627 112.733Z" fill="white"/>
<path d="M419.703 75.9179C420.281 75.4079 420.914 74.9239 421.602 74.4649C422.291 74.0059 423.034 73.6079 423.832 73.2669C424.63 72.9279 425.497 72.6599 426.431 72.4649C427.365 72.2699 428.376 72.1719 429.463 72.1719C430.942 72.1719 432.288 72.3759 433.503 72.7839C434.717 73.1919 435.758 73.7739 436.624 74.5299C437.491 75.2859 438.162 76.1989 438.638 77.2689C439.113 78.3399 439.351 79.5369 439.351 80.8619C439.351 82.1529 439.165 83.2709 438.791 84.2129C438.417 85.1559 437.95 85.9759 437.39 86.6719C436.829 87.3689 436.213 87.9719 435.542 88.4809C434.871 88.9909 434.239 89.4709 433.644 89.9209C433.049 90.3709 432.534 90.8129 432.101 91.2459C431.668 91.6789 431.409 92.1679 431.324 92.7109L430.739 96.4319H426.432L425.999 92.2779C425.897 91.4799 426.012 90.7789 426.343 90.1759C426.674 89.5729 427.116 89.0199 427.668 88.5189C428.22 88.0179 428.836 87.5339 429.515 87.0659C430.194 86.5989 430.832 86.0889 431.426 85.5369C432.02 84.9859 432.518 84.3649 432.917 83.6769C433.316 82.9879 433.516 82.1689 433.516 81.2169C433.516 80.6049 433.402 80.0579 433.172 79.5739C432.943 79.0889 432.625 78.6729 432.217 78.3249C431.809 77.9769 431.32 77.7089 430.751 77.5219C430.182 77.3349 429.566 77.2419 428.904 77.2419C427.936 77.2419 427.116 77.3479 426.445 77.5609C425.773 77.7739 425.204 78.0109 424.737 78.2749C424.27 78.5379 423.875 78.7759 423.552 78.9879C423.23 79.2009 422.941 79.3069 422.686 79.3069C422.074 79.3069 421.632 79.0529 421.36 78.5429L419.703 75.9179ZM424.521 103.149C424.521 102.623 424.619 102.121 424.814 101.645C425.009 101.17 425.277 100.762 425.617 100.422C425.957 100.082 426.365 99.8099 426.84 99.6059C427.316 99.4019 427.826 99.2999 428.369 99.2999C428.913 99.2999 429.417 99.4019 429.885 99.6059C430.352 99.8099 430.76 100.082 431.108 100.422C431.456 100.762 431.732 101.17 431.936 101.645C432.14 102.121 432.242 102.622 432.242 103.149C432.242 103.693 432.14 104.198 431.936 104.665C431.732 105.133 431.456 105.536 431.108 105.876C430.759 106.216 430.352 106.483 429.885 106.679C429.417 106.874 428.912 106.972 428.369 106.972C427.825 106.972 427.315 106.874 426.84 106.679C426.364 106.484 425.956 106.216 425.617 105.876C425.277 105.536 425.01 105.133 424.814 104.665C424.618 104.198 424.521 103.694 424.521 103.149Z" fill="#BDE958"/>
</svg>
